<svg width="16" height="17" viewBox="0 0 16 17" fill="none" xmlns="http://www.w3.org/2000/svg">
<rect x="16" y="16.9658" width="16" height="16.1308" rx="8" transform="rotate(-180 16 16.9658)" fill="#2ED6A3" fill-opacity="0.15"/>
<g clip-path="url(#clip0_414_4799)">
<path d="M6.02165 8.76136C6.1099 8.85031 6.22957 8.90027 6.35436 8.90027C6.47914 8.90027 6.59882 8.85031 6.68706 8.76136L7.53083 7.9107L7.53083 11.0353C7.53083 11.1612 7.58041 11.2818 7.66866 11.3708C7.75691 11.4598 7.87661 11.5098 8.00142 11.5098C8.12622 11.5098 8.24592 11.4598 8.33417 11.3708C8.42243 11.2818 8.472 11.1612 8.472 11.0353L8.47201 7.9107L9.31577 8.76136C9.40452 8.84779 9.5234 8.89561 9.64678 8.89453C9.77017 8.89344 9.8882 8.84355 9.97545 8.75558C10.0627 8.66762 10.1122 8.54863 10.1133 8.42423C10.1143 8.29983 10.0669 8.17999 9.98118 8.09051L8.33412 6.42999C8.24587 6.34105 8.1262 6.29108 8.00142 6.29108C7.87663 6.29108 7.75696 6.34105 7.66871 6.42999L6.02165 8.09051C5.93343 8.17948 5.88387 8.30013 5.88387 8.42594C5.88387 8.55174 5.93343 8.67239 6.02165 8.76136Z" fill="#0C9700"/>
</g>
<defs>
<clipPath id="clip0_414_4799">
<rect width="5.64706" height="5.69322" fill="white" transform="translate(10.8242 11.7471) rotate(-180)"/>
</clipPath>
</defs>
</svg>
