<svg width="60" height="55" viewBox="0 0 60 55" fill="none" xmlns="http://www.w3.org/2000/svg">
<rect width="60" height="55" rx="8" fill="#F24E4D" fill-opacity="0.2"/>
<path d="M39.8753 38.5H20.1247C18.1051 38.5 16.8461 36.3398 17.8559 34.6194L27.7312 17.7903C28.741 16.0699 31.259 16.0699 32.2688 17.7903L42.1441 34.6194C43.1539 36.3398 41.8949 38.5 39.8753 38.5ZM30 29.4452C30.7213 29.4452 31.3115 28.8631 31.3115 28.1516V25.5645C31.3115 24.8531 30.7213 24.271 30 24.271C29.2787 24.271 28.6885 24.8531 28.6885 25.5645V28.1516C28.6885 28.8631 29.2787 29.4452 30 29.4452ZM28.6885 34.6194H31.3115V32.0323H28.6885V34.6194Z" fill="#F24E4D"/>
</svg>
