<svg width="10" height="10" viewBox="0 0 10 10" fill="none" xmlns="http://www.w3.org/2000/svg">
<g clip-path="url(#clip0_414_4543)">
<path d="M5.88367 7.55083C5.76758 7.66699 5.62975 7.75914 5.47804 7.82201C5.32633 7.88488 5.16372 7.91723 4.9995 7.91723C4.83528 7.91723 4.67267 7.88488 4.52096 7.82201C4.36925 7.75914 4.23142 7.66699 4.11533 7.55083L2.77742 6.21292C2.70568 6.13358 2.66721 6.0297 2.66995 5.92277C2.6727 5.81585 2.71645 5.71408 2.79217 5.63853C2.86788 5.56298 2.96974 5.51944 3.07667 5.51692C3.1836 5.5144 3.2874 5.5531 3.36658 5.625L4.58575 6.84458L4.58283 0.416667C4.58283 0.30616 4.62673 0.200179 4.70487 0.122039C4.78301 0.0438987 4.88899 0 4.9995 0V0C5.11001 0 5.21599 0.0438987 5.29413 0.122039C5.37227 0.200179 5.41617 0.30616 5.41617 0.416667L5.41992 6.83667L6.63242 5.625C6.7106 5.54687 6.81662 5.503 6.92715 5.50304C7.03768 5.50308 7.14366 5.54703 7.22179 5.62521C7.29992 5.70339 7.34379 5.80941 7.34375 5.91994C7.34371 6.03047 7.29977 6.13646 7.22158 6.21458L5.88367 7.55083Z" fill="#0F1014"/>
<path d="M0.416667 6.6665C0.527174 6.6665 0.633155 6.7104 0.711295 6.78854C0.789435 6.86668 0.833334 6.97266 0.833334 7.08317V8.74983C0.833334 8.86034 0.877232 8.96632 0.955372 9.04446C1.03351 9.1226 1.13949 9.1665 1.25 9.1665H8.75C8.86051 9.1665 8.96649 9.1226 9.04463 9.04446C9.12277 8.96632 9.16667 8.86034 9.16667 8.74983V7.08317C9.16667 6.97266 9.21057 6.86668 9.28871 6.78854C9.36685 6.7104 9.47283 6.6665 9.58333 6.6665C9.69384 6.6665 9.79982 6.7104 9.87796 6.78854C9.9561 6.86668 10 6.97266 10 7.08317V8.74983C10 9.08135 9.8683 9.3993 9.63388 9.63372C9.39946 9.86813 9.08152 9.99983 8.75 9.99983H1.25C0.91848 9.99983 0.600537 9.86813 0.366117 9.63372C0.131696 9.3993 0 9.08135 0 8.74983V7.08317C0 6.97266 0.0438986 6.86668 0.122039 6.78854C0.200179 6.7104 0.30616 6.6665 0.416667 6.6665Z" fill="#0F1014"/>
</g>
<defs>
<clipPath id="clip0_414_4543">
<rect width="10" height="10" fill="white" transform="matrix(-1 0 0 1 10 0)"/>
</clipPath>
</defs>
</svg>
