<svg width="14" height="14" viewBox="0 0 14 14" fill="none" xmlns="http://www.w3.org/2000/svg">
<path d="M8.16588 14C8.03967 14 7.91686 13.9591 7.81588 13.8833L5.48255 12.1333C5.4101 12.079 5.3513 12.0085 5.3108 11.9275C5.2703 11.8465 5.24922 11.7572 5.24922 11.6667V8.38833L1.15655 3.78408C0.865886 3.45618 0.676103 3.05131 0.610012 2.61814C0.543921 2.18496 0.604333 1.74192 0.783987 1.34226C0.963642 0.942594 1.25489 0.603318 1.62274 0.365205C1.99058 0.127092 2.41936 0.000276744 2.85755 0L11.1409 0C11.579 0.000513946 12.0077 0.12754 12.3754 0.365812C12.7431 0.604085 13.0342 0.943467 13.2136 1.34317C13.3931 1.74288 13.4533 2.18591 13.3871 2.61902C13.3208 3.05213 13.1309 3.45689 12.8401 3.78467L8.74922 8.38833V13.4167C8.74922 13.5714 8.68776 13.7197 8.57836 13.8291C8.46897 13.9385 8.32059 14 8.16588 14ZM6.41588 11.375L7.58255 12.25V8.16667C7.58267 8.02384 7.63518 7.88602 7.73013 7.77933L11.9698 3.00942C12.1112 2.84963 12.2034 2.65244 12.2355 2.44151C12.2675 2.23059 12.238 2.01489 12.1505 1.82032C12.063 1.62576 11.9212 1.46058 11.7421 1.34463C11.563 1.22869 11.3542 1.16689 11.1409 1.16667H2.85755C2.64431 1.16699 2.4357 1.22882 2.25672 1.34474C2.07774 1.46066 1.936 1.62575 1.8485 1.8202C1.761 2.01466 1.73146 2.23023 1.76341 2.44106C1.79536 2.65189 1.88745 2.84903 2.02863 3.00883L6.26888 7.77933C6.36363 7.88611 6.41593 8.02392 6.41588 8.16667V11.375Z" fill="#4B4B4B"/>
</svg>
