<svg width="65" height="66" viewBox="0 0 65 66" fill="none" xmlns="http://www.w3.org/2000/svg">
<path opacity="0.21" fill-rule="evenodd" clip-rule="evenodd" d="M0 33.4658V45.9658C0 57.0115 8.9543 65.9658 20 65.9658H32.5H45C56.0457 65.9658 65 57.0115 65 45.9658V33.4658V20.9658C65 9.92013 56.0457 0.96582 45 0.96582H32.5H20C8.95431 0.96582 0 9.92012 0 20.9658V33.4658Z" fill="#DEF0B5"/>
<mask id="mask0_414_4829" style="mask-type:alpha" maskUnits="userSpaceOnUse" x="15" y="15" width="35" height="36">
<rect x="15" y="15.9658" width="35" height="35" fill="#D9D9D9"/>
</mask>
<g mask="url(#mask0_414_4829)">
<path d="M41.2493 34.9241V32.0074H47.0827V34.9241H41.2493ZM42.9994 45.1324L38.3327 41.6324L40.0827 39.2991L44.7493 42.7991L42.9994 45.1324ZM40.0827 27.6324L38.3327 25.2991L42.9994 21.7991L44.7493 24.1324L40.0827 27.6324ZM22.291 43.6741V37.8407H17.916V29.0907H26.666L33.9577 24.7157V42.2157L26.666 37.8407H25.2077V43.6741H22.291ZM35.416 38.3512V28.5803C36.0723 29.1637 36.6009 29.8746 37.002 30.7131C37.403 31.5517 37.6035 32.4692 37.6035 33.4657C37.6035 34.4623 37.403 35.3798 37.002 36.2183C36.6009 37.0569 36.0723 37.7678 35.416 38.3512Z" fill="#A9C370"/>
</g>
</svg>
