<svg width="66" height="66" viewBox="0 0 66 66" fill="none" xmlns="http://www.w3.org/2000/svg">
<path opacity="0.21" fill-rule="evenodd" clip-rule="evenodd" d="M0.25 33.4658V45.9658C0.25 57.0115 9.2043 65.9658 20.25 65.9658H32.75H45.25C56.2957 65.9658 65.25 57.0115 65.25 45.9658V33.4658V20.9658C65.25 9.92013 56.2957 0.96582 45.25 0.96582H32.75H20.25C9.20431 0.96582 0.25 9.92012 0.25 20.9658V33.4658Z" fill="#F5AE3B"/>
<path d="M21.3611 43.8889H44.6944C45.5536 43.8889 46.25 44.5853 46.25 45.4444C46.25 46.3036 45.5536 47 44.6944 47H19.8056C18.9464 47 18.25 46.3036 18.25 45.4444V20.5556C18.25 19.6964 18.9464 19 19.8056 19C20.6647 19 21.3611 19.6964 21.3611 20.5556V43.8889Z" fill="#F5AE3B"/>
<path opacity="0.5" d="M27.1631 37.175C26.5755 37.8017 25.5911 37.8335 24.9643 37.2459C24.3376 36.6583 24.3058 35.6739 24.8934 35.0472L30.7267 28.8249C31.295 28.2188 32.2393 28.1662 32.8713 28.7056L37.4753 32.6343L43.474 25.0361C44.0063 24.3618 44.9845 24.2467 45.6588 24.779C46.3331 25.3114 46.4482 26.2895 45.9158 26.9638L38.9158 35.8305C38.3691 36.5231 37.3563 36.6227 36.6851 36.0499L31.9811 32.0358L27.1631 37.175Z" fill="#F5AE3B"/>
</svg>
