<svg width="65" height="66" viewBox="0 0 65 66" fill="none" xmlns="http://www.w3.org/2000/svg">
<path opacity="0.21" d="M0 20.9658C0 9.92012 8.95431 0.96582 20 0.96582H45C56.0457 0.96582 65 9.92013 65 20.9658V45.9658C65 57.0115 56.0457 65.9658 45 65.9658H20C8.9543 65.9658 0 57.0115 0 45.9658V20.9658Z" fill="#A7F2FF"/>
<path fill-rule="evenodd" clip-rule="evenodd" d="M16.25 27.3087L30.2255 35.3775C30.376 35.4644 30.5338 35.5272 30.6944 35.567V51.216L17.2467 43.2576C16.6289 42.892 16.25 42.2274 16.25 41.5096V27.3087ZM48.75 27.0942V41.5095C48.75 42.2274 48.3711 42.892 47.7533 43.2576L34.3056 51.216V35.4299C34.3384 35.4135 34.3708 35.3961 34.403 35.3775L48.75 27.0942Z" fill="#18A4AD"/>
<path opacity="0.499209" fill-rule="evenodd" clip-rule="evenodd" d="M16.6895 23.3925C16.8602 23.177 17.0756 22.9948 17.3268 22.861L31.5456 15.2878C32.1425 14.9698 32.8585 14.9698 33.4554 15.2878L47.6741 22.861C47.8677 22.9641 48.0401 23.096 48.1872 23.2498L32.5978 32.2503C32.4953 32.3095 32.4008 32.3772 32.3147 32.452C32.2286 32.3772 32.1341 32.3095 32.0315 32.2503L16.6895 23.3925Z" fill="#9FDAE3"/>
</svg>
