<svg width="16" height="16" viewBox="0 0 16 16" fill="none" xmlns="http://www.w3.org/2000/svg">
<g clip-path="url(#clip0_414_5060)">
<mask id="path-1-inside-1_414_5060" fill="white">
<path d="M8.00065 4C7.47324 4 6.95766 4.1564 6.51913 4.44941C6.0806 4.74243 5.73881 5.15891 5.53697 5.64618C5.33514 6.13345 5.28233 6.66962 5.38522 7.18691C5.48812 7.70419 5.74209 8.17935 6.11503 8.55229C6.48797 8.92523 6.96313 9.1792 7.48041 9.28209C7.99769 9.38499 8.53387 9.33218 9.02114 9.13035C9.50841 8.92851 9.92489 8.58672 10.2179 8.14819C10.5109 7.70966 10.6673 7.19408 10.6673 6.66667C10.6673 5.95942 10.3864 5.28115 9.88627 4.78105C9.38617 4.28095 8.7079 4 8.00065 4ZM8.00065 8C7.73694 8 7.47916 7.9218 7.25989 7.77529C7.04063 7.62878 6.86973 7.42055 6.76881 7.17691C6.6679 6.93328 6.64149 6.66519 6.69294 6.40655C6.74439 6.14791 6.87137 5.91033 7.05784 5.72386C7.24431 5.53739 7.48189 5.4104 7.74053 5.35895C7.99917 5.30751 8.26726 5.33391 8.5109 5.43483C8.75453 5.53574 8.96277 5.70664 9.10928 5.92591C9.25579 6.14517 9.33399 6.40296 9.33399 6.66667C9.33399 7.02029 9.19351 7.35943 8.94346 7.60948C8.69341 7.85952 8.35427 8 8.00065 8Z"/>
</mask>
<path d="M8.00065 4C7.47324 4 6.95766 4.1564 6.51913 4.44941C6.0806 4.74243 5.73881 5.15891 5.53697 5.64618C5.33514 6.13345 5.28233 6.66962 5.38522 7.18691C5.48812 7.70419 5.74209 8.17935 6.11503 8.55229C6.48797 8.92523 6.96313 9.1792 7.48041 9.28209C7.99769 9.38499 8.53387 9.33218 9.02114 9.13035C9.50841 8.92851 9.92489 8.58672 10.2179 8.14819C10.5109 7.70966 10.6673 7.19408 10.6673 6.66667C10.6673 5.95942 10.3864 5.28115 9.88627 4.78105C9.38617 4.28095 8.7079 4 8.00065 4ZM8.00065 8C7.73694 8 7.47916 7.9218 7.25989 7.77529C7.04063 7.62878 6.86973 7.42055 6.76881 7.17691C6.6679 6.93328 6.64149 6.66519 6.69294 6.40655C6.74439 6.14791 6.87137 5.91033 7.05784 5.72386C7.24431 5.53739 7.48189 5.4104 7.74053 5.35895C7.99917 5.30751 8.26726 5.33391 8.5109 5.43483C8.75453 5.53574 8.96277 5.70664 9.10928 5.92591C9.25579 6.14517 9.33399 6.40296 9.33399 6.66667C9.33399 7.02029 9.19351 7.35943 8.94346 7.60948C8.69341 7.85952 8.35427 8 8.00065 8Z" fill="#101213"/>
<path d="M8.00065 4V2.5V4ZM10.6673 6.66667H12.1673H10.6673ZM8.00065 2.5C7.17656 2.5 6.37098 2.74437 5.68578 3.20221L7.35249 5.69662C7.54434 5.56842 7.76991 5.5 8.00065 5.5V2.5ZM5.68578 3.20221C5.00057 3.66005 4.46652 4.31079 4.15115 5.07215L6.92279 6.2202C7.01109 6.00702 7.16063 5.82481 7.35249 5.69662L5.68578 3.20221ZM4.15115 5.07215C3.83579 5.83351 3.75328 6.67129 3.91405 7.47954L6.8564 6.89427C6.81139 6.66796 6.83449 6.43338 6.92279 6.2202L4.15115 5.07215ZM3.91405 7.47954C4.07482 8.2878 4.47166 9.03023 5.05437 9.61295L7.17569 7.49162C7.01253 7.32846 6.90142 7.12058 6.8564 6.89427L3.91405 7.47954ZM5.05437 9.61295C5.63709 10.1957 6.37952 10.5925 7.18778 10.7533L7.77305 7.81092C7.54674 7.7659 7.33886 7.65479 7.17569 7.49162L5.05437 9.61295ZM7.18778 10.7533C7.99603 10.914 8.83381 10.8315 9.59517 10.5162L8.44712 7.74453C8.23394 7.83283 7.99936 7.85593 7.77305 7.81092L7.18778 10.7533ZM9.59517 10.5162C10.3565 10.2008 11.0073 9.66675 11.4651 8.98154L8.9707 7.31483C8.8425 7.50669 8.6603 7.65622 8.44712 7.74453L9.59517 10.5162ZM11.4651 8.98154C11.9229 8.29634 12.1673 7.49076 12.1673 6.66667H9.16732C9.16732 6.89741 9.09889 7.12297 8.9707 7.31483L11.4651 8.98154ZM12.1673 6.66667C12.1673 5.5616 11.7283 4.50179 10.9469 3.72039L8.82561 5.84171C9.0444 6.0605 9.16732 6.35725 9.16732 6.66667H12.1673ZM10.9469 3.72039C10.1655 2.93899 9.10572 2.5 8.00065 2.5V5.5C8.31007 5.5 8.60682 5.62292 8.82561 5.84171L10.9469 3.72039ZM8.00065 6.5C8.03362 6.5 8.06584 6.50978 8.09325 6.52809L6.42654 9.0225C6.89248 9.33383 7.44027 9.5 8.00065 9.5V6.5ZM8.09325 6.52809C8.12066 6.5464 8.14202 6.57243 8.15463 6.60289L5.38299 7.75094C5.59744 8.26866 5.9606 8.71117 6.42654 9.0225L8.09325 6.52809ZM8.15463 6.60289C8.16725 6.63334 8.17055 6.66685 8.16412 6.69918L5.22176 6.11391C5.11244 6.66352 5.16855 7.23321 5.38299 7.75094L8.15463 6.60289ZM8.16412 6.69918C8.15769 6.73151 8.14181 6.76121 8.1185 6.78452L5.99718 4.6632C5.60094 5.05945 5.33109 5.5643 5.22176 6.11391L8.16412 6.69918ZM8.1185 6.78452C8.0952 6.80783 8.0655 6.8237 8.03317 6.83013L7.4479 3.88777C6.89828 3.9971 6.39343 4.26695 5.99718 4.6632L8.1185 6.78452ZM8.03317 6.83013C8.00084 6.83656 7.96733 6.83326 7.93687 6.82065L9.08492 4.04901C8.5672 3.83456 7.99751 3.77845 7.4479 3.88777L8.03317 6.83013ZM7.93687 6.82065C7.90642 6.80803 7.88039 6.78667 7.86207 6.75926L10.3565 5.09255C10.0452 4.62661 9.60265 4.26346 9.08492 4.04901L7.93687 6.82065ZM7.86207 6.75926C7.84376 6.73185 7.83399 6.69963 7.83399 6.66667H10.834C10.834 6.10629 10.6678 5.55849 10.3565 5.09255L7.86207 6.75926ZM7.83399 6.66667C7.83399 6.62246 7.85155 6.58007 7.8828 6.54882L10.0041 8.67014C10.5355 8.13878 10.834 7.41811 10.834 6.66667H7.83399ZM7.8828 6.54882C7.91406 6.51756 7.95645 6.5 8.00065 6.5V9.5C8.7521 9.5 9.47277 9.20149 10.0041 8.67014L7.8828 6.54882Z" fill="#101213" mask="url(#path-1-inside-1_414_5060)"/>
<path d="M8.00021 16.0001C7.43884 16.003 6.88495 15.8713 6.38492 15.6161C5.88489 15.361 5.45327 14.9897 5.12621 14.5334C2.58554 11.0288 1.29688 8.39411 1.29688 6.70211C1.29688 4.92428 2.00312 3.21926 3.26024 1.96214C4.51735 0.705021 6.22237 -0.0012207 8.00021 -0.0012207C9.77804 -0.0012207 11.4831 0.705021 12.7402 1.96214C13.9973 3.21926 14.7035 4.92428 14.7035 6.70211C14.7035 8.39411 13.4149 11.0288 10.8742 14.5334C10.5471 14.9897 10.1155 15.361 9.6155 15.6161C9.11547 15.8713 8.56158 16.003 8.00021 16.0001ZM8.00021 1.45411C6.60849 1.4557 5.27422 2.00926 4.29012 2.99336C3.30603 3.97746 2.75246 5.31172 2.75087 6.70345C2.75087 8.04345 4.01287 10.5214 6.30354 13.6808C6.498 13.9486 6.75312 14.1666 7.04802 14.317C7.34291 14.4673 7.66921 14.5456 8.00021 14.5456C8.33121 14.5456 8.6575 14.4673 8.9524 14.317C9.24729 14.1666 9.50241 13.9486 9.69687 13.6808C11.9875 10.5214 13.2495 8.04345 13.2495 6.70345C13.248 5.31172 12.6944 3.97746 11.7103 2.99336C10.7262 2.00926 9.39193 1.4557 8.00021 1.45411Z" fill="#101213"/>
</g>
<defs>
<clipPath id="clip0_414_5060">
<rect width="16" height="16" fill="white"/>
</clipPath>
</defs>
</svg>
