<svg width="22" height="22" viewBox="0 0 22 22" fill="none" xmlns="http://www.w3.org/2000/svg">
<rect x="0.857422" width="21.125" height="21.125" rx="3" fill="#E4ECFA"/>
<path d="M7.71157 10.9101C7.61936 10.9101 7.53094 10.8735 7.46574 10.8083C7.40054 10.7431 7.36391 10.6546 7.36391 10.5624C7.36391 10.4702 7.40054 10.3818 7.46574 10.3166C7.53094 10.2514 7.61936 10.2148 7.71157 10.2148L11.9993 10.2148L11.9993 7.78119C11.9994 7.71247 12.0198 7.64532 12.058 7.5882C12.0962 7.53109 12.1505 7.48657 12.214 7.46028C12.2775 7.434 12.3473 7.42711 12.4147 7.4405C12.4821 7.45389 12.544 7.48695 12.5927 7.53551L15.3739 10.3168C15.439 10.3819 15.4756 10.4703 15.4756 10.5624C15.4756 10.6546 15.439 10.7429 15.3739 10.8081L12.5927 13.5894C12.544 13.6379 12.4821 13.671 12.4147 13.6844C12.3473 13.6978 12.2775 13.6909 12.214 13.6646C12.1505 13.6383 12.0962 13.5938 12.058 13.5367C12.0198 13.4796 11.9994 13.4124 11.9993 13.3437L11.9993 10.9101L7.71157 10.9101Z" fill="#4B4B4B"/>
</svg>
