<svg width="12" height="12" viewBox="0 0 12 12" fill="none" xmlns="http://www.w3.org/2000/svg">
<path d="M10.7384 1.37107L10.7384 1.37098C10.7356 1.21092 10.6694 1.05772 10.5558 0.944111C10.4422 0.830503 10.289 0.764378 10.1289 0.761532L10.1289 0.761531L2.41364 0.629121L2.41364 0.629027L2.40835 0.629123C2.25164 0.631966 2.10289 0.69573 1.99441 0.808243C1.88594 0.920748 1.82761 1.07175 1.8303 1.22849C1.83299 1.385 1.89619 1.53512 2.00538 1.64809C2.11455 1.76105 2.26246 1.82938 2.41881 1.83757L2.4188 1.83767L2.42408 1.83776L8.68806 1.94577L0.433158 10.2007C0.320035 10.3138 0.258853 10.4681 0.261607 10.6285C0.264356 10.7887 0.330492 10.942 0.444192 11.0557C0.557892 11.1694 0.711246 11.2356 0.871437 11.2383C1.03187 11.2411 1.18614 11.1799 1.29926 11.0668L9.55416 2.81187L9.66217 9.07585L9.66208 9.07585L9.66236 9.08112C9.67055 9.23747 9.73888 9.38538 9.85184 9.49455C9.96481 9.60374 10.1149 9.66694 10.2714 9.66963C10.4282 9.67232 10.5792 9.61399 10.6917 9.50552C10.8042 9.39704 10.868 9.24829 10.8708 9.09158L10.8709 9.09158L10.8708 9.08629L10.7384 1.37107Z" fill="#6C6C6C" style="mix-blend-mode:luminosity"/>
<path d="M10.7384 1.37107L10.7384 1.37098C10.7356 1.21092 10.6694 1.05772 10.5558 0.944111C10.4422 0.830503 10.289 0.764378 10.1289 0.761532L10.1289 0.761531L2.41364 0.629121L2.41364 0.629027L2.40835 0.629123C2.25164 0.631966 2.10289 0.69573 1.99441 0.808243C1.88594 0.920748 1.82761 1.07175 1.8303 1.22849C1.83299 1.385 1.89619 1.53512 2.00538 1.64809C2.11455 1.76105 2.26246 1.82938 2.41881 1.83757L2.4188 1.83767L2.42408 1.83776L8.68806 1.94577L0.433158 10.2007C0.320035 10.3138 0.258853 10.4681 0.261607 10.6285C0.264356 10.7887 0.330492 10.942 0.444192 11.0557C0.557892 11.1694 0.711246 11.2356 0.871437 11.2383C1.03187 11.2411 1.18614 11.1799 1.29926 11.0668L9.55416 2.81187L9.66217 9.07585L9.66208 9.07585L9.66236 9.08112C9.67055 9.23747 9.73888 9.38538 9.85184 9.49455C9.96481 9.60374 10.1149 9.66694 10.2714 9.66963C10.4282 9.67232 10.5792 9.61399 10.6917 9.50552C10.8042 9.39704 10.868 9.24829 10.8708 9.09158L10.8709 9.09158L10.8708 9.08629L10.7384 1.37107Z" stroke="#6C6C6C" stroke-width="0.3"/>
</svg>
