<svg width="60" height="55" viewBox="0 0 60 55" fill="none" xmlns="http://www.w3.org/2000/svg">
<rect width="60" height="55" rx="8" fill="#F5AE3B" fill-opacity="0.2"/>
<path d="M32.9236 25.4221C33.3572 24.2767 33.5769 23.2734 33.5769 22.4089C33.5769 20.4841 32.6917 19 31.2201 19C30.4216 19 30.1747 19.4045 29.8655 20.4023C29.8824 20.3501 29.7118 20.9111 29.6628 21.0612C29.5676 21.3494 29.4016 21.8398 29.166 22.5309C29.1596 22.5494 29.15 22.567 29.1377 22.5831L26.4359 26.1839C25.7965 27.0353 24.8531 27.6897 23.7445 28.0509L22.5595 28.4377C22.1973 28.5559 21.8956 28.7789 21.7074 29.0676C21.5191 29.3564 21.4563 29.6924 21.5301 30.0166L22.1768 32.8572C22.254 33.196 22.4435 33.5089 22.723 33.7588C23.0025 34.0088 23.3603 34.1853 23.7539 34.2675L31.5312 35.8905C32.6776 36.1296 33.8885 35.9737 34.9006 35.4566C35.9127 34.9395 36.6441 34.1031 36.9357 33.1293L38.4195 28.1745C38.5172 27.8485 38.5261 27.5079 38.4455 27.1786C38.365 26.8493 38.1971 26.54 37.9547 26.2744C37.7123 26.0087 37.4018 25.7938 37.047 25.6459C36.6921 25.4981 36.3023 25.4213 35.9072 25.4213L32.9236 25.4221Z" fill="#81A141"/>
</svg>
