<svg width="40" height="41" viewBox="0 0 40 41" fill="none" xmlns="http://www.w3.org/2000/svg">
<rect y="0.401367" width="40" height="40" rx="20" fill="#F6F9EC"/>
<path fill-rule="evenodd" clip-rule="evenodd" d="M14.0067 24.8392C13.7862 25.0596 13.4872 25.1835 13.1755 25.1835C12.8637 25.1835 12.5647 25.0596 12.3443 24.8392C12.1238 24.6187 12 24.3197 12 24.008C12 23.6962 12.1238 23.3972 12.3443 23.1768L16.26 19.2623L16.2682 19.254C16.5881 18.9407 17.0181 18.7652 17.4659 18.7652C17.9138 18.7652 18.3437 18.9407 18.6637 19.254L18.6719 19.2623L20.6703 21.2606L23.4276 18.3447L22.2058 17.1229C22.0827 16.9997 21.9989 16.8428 21.965 16.6719C21.931 16.5011 21.9485 16.3241 22.0151 16.1632C22.0817 16.0023 22.1945 15.8647 22.3393 15.7679C22.4841 15.6711 22.6543 15.6193 22.8284 15.6191H27.1189C27.3526 15.6191 27.5767 15.712 27.7419 15.8772C27.9072 16.0425 28 16.2666 28 16.5003V20.7907C27.9998 20.9649 27.9481 21.1351 27.8513 21.2798C27.7544 21.4246 27.6169 21.5374 27.456 21.604C27.2951 21.6707 27.118 21.6881 26.9472 21.6542C26.7764 21.6202 26.6194 21.5364 26.4962 21.4134L25.09 20.0059L21.9132 23.3671C21.7563 23.5291 21.5688 23.6585 21.3617 23.7478C21.1545 23.8372 20.9318 23.8847 20.7062 23.8876C20.4807 23.8906 20.2568 23.8489 20.0474 23.765C19.838 23.6811 19.6472 23.5567 19.486 23.3988L19.4778 23.3906L17.4653 21.3793L14.0067 24.8392Z" fill="#81A141"/>
</svg>
