<svg width="16" height="18" viewBox="0 0 16 18" fill="none" xmlns="http://www.w3.org/2000/svg">
<rect x="16" y="17.0654" width="16" height="16.1308" rx="8" transform="rotate(-180 16 17.0654)" fill="#2ED6A3" fill-opacity="0.15"/>
<g clip-path="url(#clip0_414_18732)">
<path d="M6.02165 8.86097C6.1099 8.94992 6.22957 8.99988 6.35436 8.99988C6.47914 8.99988 6.59882 8.94992 6.68706 8.86097L7.53083 8.01031L7.53083 11.1349C7.53083 11.2608 7.58041 11.3814 7.66866 11.4704C7.75691 11.5594 7.87661 11.6094 8.00142 11.6094C8.12622 11.6094 8.24592 11.5594 8.33417 11.4704C8.42243 11.3814 8.472 11.2608 8.472 11.1349L8.47201 8.01031L9.31577 8.86097C9.40452 8.94739 9.5234 8.99522 9.64678 8.99413C9.77017 8.99305 9.8882 8.94316 9.97545 8.85519C10.0627 8.76723 10.1122 8.64824 10.1133 8.52384C10.1143 8.39944 10.0669 8.2796 9.98118 8.19012L8.33412 6.5296C8.24587 6.44066 8.1262 6.39069 8.00142 6.39069C7.87663 6.39069 7.75696 6.44066 7.66871 6.5296L6.02165 8.19012C5.93343 8.27909 5.88387 8.39974 5.88387 8.52555C5.88387 8.65135 5.93343 8.772 6.02165 8.86097Z" fill="#0C9700"/>
</g>
<defs>
<clipPath id="clip0_414_18732">
<rect width="5.64706" height="5.69322" fill="white" transform="translate(10.8242 11.8467) rotate(-180)"/>
</clipPath>
</defs>
</svg>
