<svg width="26" height="27" viewBox="0 0 26 27" fill="none" xmlns="http://www.w3.org/2000/svg">
<g opacity="0.4">
<path fill-rule="evenodd" clip-rule="evenodd" d="M11.3234 8.77147C10.5685 8.77147 9.88427 9.42678 9.88427 10.3194C9.88427 10.9272 10.0151 11.2053 10.131 11.353C10.255 11.5112 10.4635 11.6517 10.874 11.7975L15.7447 13.4896C15.7465 13.4902 15.7483 13.4908 15.7501 13.4914C16.2932 13.6839 16.8822 13.9725 17.3173 14.5275C17.7607 15.0932 17.9503 15.8128 17.9503 16.6803C17.9503 18.4965 16.5304 20.0421 14.6973 20.0421H11.662C9.63253 20.0421 8.07031 18.3363 8.07031 16.3175C8.07031 15.8166 8.47638 15.4105 8.97729 15.4105C9.4782 15.4105 9.88427 15.8166 9.88427 16.3175C9.88427 17.4186 10.7165 18.2282 11.662 18.2282H14.6973C15.4521 18.2282 16.1364 17.5729 16.1364 16.6803C16.1364 16.0724 16.0055 15.7943 15.8897 15.6466C15.7657 15.4884 15.5572 15.3479 15.1467 15.2021L10.2759 13.51C10.2741 13.5094 10.2724 13.5088 10.2706 13.5082C9.72742 13.3156 9.13841 13.0271 8.70337 12.4721C8.25991 11.9064 8.07031 11.1868 8.07031 10.3194C8.07031 8.50314 9.49025 6.95752 11.3234 6.95752H14.3587C16.3881 6.95752 17.9503 8.66334 17.9503 10.6822C17.9503 11.1831 17.5443 11.5891 17.0434 11.5891C16.5425 11.5891 16.1364 11.1831 16.1364 10.6822C16.1364 9.581 15.3042 8.77147 14.3587 8.77147H11.3234Z" fill="#F5AE3B"/>
<path fill-rule="evenodd" clip-rule="evenodd" d="M13.0007 5.3374C13.5016 5.3374 13.9077 5.74347 13.9077 6.24438V20.756C13.9077 21.2569 13.5016 21.663 13.0007 21.663C12.4998 21.663 12.0938 21.2569 12.0938 20.756V6.24438C12.0938 5.74347 12.4998 5.3374 13.0007 5.3374Z" fill="#F5AE3B"/>
</g>
<path fill-rule="evenodd" clip-rule="evenodd" d="M0 13.5C0 6.3203 5.8203 0.5 13 0.5C20.1796 0.5 26 6.32029 26 13.5C26 20.6796 20.1796 26.5 13 26.5C5.82029 26.5 0 20.6796 0 13.5ZM13 2.31395C6.82211 2.31395 1.81395 7.32211 1.81395 13.5C1.81395 19.6778 6.82212 24.686 13 24.686C19.1778 24.686 24.186 19.6778 24.186 13.5C24.186 7.32212 19.1778 2.31395 13 2.31395Z" fill="#F5AE3B"/>
</svg>
