<svg width="29" height="27" viewBox="0 0 29 27" fill="none" xmlns="http://www.w3.org/2000/svg">
<path fill-rule="evenodd" clip-rule="evenodd" d="M14.1498 2.33271L3.22895 6.70101L3.22894 6.70102C3.22874 6.7011 3.2246 6.70283 3.21694 6.7076C3.20893 6.71258 3.19816 6.72021 3.18538 6.73119C3.15908 6.75379 3.13024 6.78545 3.10399 6.8244C3.07773 6.86335 3.05914 6.90206 3.04799 6.93496C3.03736 6.96631 3.03648 6.98334 3.03641 6.98468C3.03641 6.98477 3.03641 6.98479 3.03641 6.98473V11.0165C3.03641 11.1813 3.17509 11.32 3.34 11.32H25.1988C25.3637 11.32 25.5024 11.1813 25.5024 11.0165V6.98473C25.5024 6.98479 25.5024 6.98477 25.5024 6.98468C25.5023 6.98334 25.5014 6.96631 25.4908 6.93496C25.4796 6.90206 25.4611 6.86335 25.4348 6.8244C25.4085 6.78545 25.3797 6.75379 25.3534 6.73119C25.3406 6.72021 25.3299 6.71258 25.3218 6.7076C25.3138 6.70261 25.3097 6.70094 25.3098 6.70102L14.389 2.33271C14.3856 2.33188 14.3785 2.33031 14.3675 2.32856C14.342 2.32452 14.3079 2.32156 14.2694 2.32156C14.2309 2.32156 14.1968 2.32452 14.1713 2.32856C14.1603 2.33031 14.1532 2.33188 14.1498 2.33271ZM14.2694 0.5C14.5047 0.5 14.7932 0.532487 15.057 0.638005L25.9864 5.00973C26.4029 5.17635 26.7279 5.48383 26.9452 5.80623C27.1623 6.12821 27.3239 6.54223 27.3239 6.98473V11.0165C27.3239 12.1874 26.3697 13.1416 25.1988 13.1416H3.34C2.1691 13.1416 1.21484 12.1874 1.21484 11.0165V6.98473C1.21484 6.54223 1.3765 6.12821 1.59355 5.80623C1.81087 5.48383 2.13589 5.17635 2.55243 5.00974L2.86876 5.80058L2.55243 5.00973L13.4818 0.638005C13.7456 0.532487 14.0341 0.5 14.2694 0.5Z" fill="#A9C370"/>
<path fill-rule="evenodd" clip-rule="evenodd" d="M3.34 21.6424C3.17511 21.6424 3.03641 21.7811 3.03641 21.946V24.6783H25.5024V21.946C25.5024 21.7811 25.3637 21.6424 25.1988 21.6424H3.34ZM1.21484 21.946C1.21484 20.775 2.16908 19.8208 3.34 19.8208H25.1988C26.3697 19.8208 27.3239 20.775 27.3239 21.946V25.5891C27.3239 26.0921 26.9162 26.4999 26.4132 26.4999H2.12563C1.62261 26.4999 1.21484 26.0921 1.21484 25.5891V21.946Z" fill="#A9C370"/>
<path opacity="0.4" fill-rule="evenodd" clip-rule="evenodd" d="M4.55531 11.3203C5.05832 11.3203 5.4661 11.7281 5.4661 12.2311V20.7317C5.4661 21.2347 5.05832 21.6425 4.55531 21.6425C4.0523 21.6425 3.64453 21.2347 3.64453 20.7317V12.2311C3.64453 11.7281 4.0523 11.3203 4.55531 11.3203Z" fill="#A9C370"/>
<path opacity="0.4" fill-rule="evenodd" clip-rule="evenodd" d="M9.41078 11.3203C9.91379 11.3203 10.3216 11.7281 10.3216 12.2311V20.7317C10.3216 21.2347 9.91379 21.6425 9.41078 21.6425C8.90777 21.6425 8.5 21.2347 8.5 20.7317V12.2311C8.5 11.7281 8.90777 11.3203 9.41078 11.3203Z" fill="#A9C370"/>
<path opacity="0.4" fill-rule="evenodd" clip-rule="evenodd" d="M14.2702 11.3203C14.7732 11.3203 15.1809 11.7281 15.1809 12.2311V20.7317C15.1809 21.2347 14.7732 21.6425 14.2702 21.6425C13.7671 21.6425 13.3594 21.2347 13.3594 20.7317V12.2311C13.3594 11.7281 13.7671 11.3203 14.2702 11.3203Z" fill="#A9C370"/>
<path opacity="0.4" fill-rule="evenodd" clip-rule="evenodd" d="M19.1256 11.3203C19.6286 11.3203 20.0364 11.7281 20.0364 12.2311V20.7317C20.0364 21.2347 19.6286 21.6425 19.1256 21.6425C18.6226 21.6425 18.2148 21.2347 18.2148 20.7317V12.2311C18.2148 11.7281 18.6226 11.3203 19.1256 11.3203Z" fill="#A9C370"/>
<path opacity="0.4" fill-rule="evenodd" clip-rule="evenodd" d="M23.985 11.3203C24.488 11.3203 24.8958 11.7281 24.8958 12.2311V20.7317C24.8958 21.2347 24.488 21.6425 23.985 21.6425C23.482 21.6425 23.0742 21.2347 23.0742 20.7317V12.2311C23.0742 11.7281 23.482 11.3203 23.985 11.3203Z" fill="#A9C370"/>
<path fill-rule="evenodd" clip-rule="evenodd" d="M0 25.589C0 25.086 0.407771 24.6782 0.910782 24.6782H27.6271C28.1301 24.6782 28.5378 25.086 28.5378 25.589C28.5378 26.092 28.1301 26.4998 27.6271 26.4998H0.910782C0.407771 26.4998 0 26.092 0 25.589Z" fill="#A9C370"/>
<path opacity="0.4" fill-rule="evenodd" clip-rule="evenodd" d="M11.5352 7.37346C11.5352 5.86441 12.7585 4.64111 14.2675 4.64111C15.7765 4.64111 16.9999 5.86441 16.9999 7.37346C16.9999 8.88251 15.7765 10.1058 14.2675 10.1058C12.7585 10.1058 11.5352 8.88251 11.5352 7.37346ZM14.2675 6.46268C13.7645 6.46268 13.3567 6.87046 13.3567 7.37346C13.3567 7.87646 13.7645 8.28424 14.2675 8.28424C14.7705 8.28424 15.1783 7.87646 15.1783 7.37346C15.1783 6.87046 14.7705 6.46268 14.2675 6.46268Z" fill="#A9C370"/>
</svg>
