<svg width="16" height="11" viewBox="0 0 16 11" fill="none" xmlns="http://www.w3.org/2000/svg">
<path fill-rule="evenodd" clip-rule="evenodd" d="M2.00667 9.83916C1.78622 10.0596 1.48723 10.1835 1.17548 10.1835C0.863722 10.1835 0.564734 10.0596 0.344289 9.83916C0.123845 9.61872 0 9.31973 0 9.00797C0 8.69622 0.123845 8.39723 0.344289 8.17679L4.25998 4.26227L4.2682 4.25405C4.58813 3.9407 5.01812 3.7652 5.46594 3.7652C5.91376 3.7652 6.34374 3.9407 6.66367 4.25405L6.67189 4.26227L8.67027 6.26065L11.4276 3.34473L10.2058 2.12292C10.0827 1.99969 9.9989 1.84276 9.96497 1.67194C9.93103 1.50113 9.94848 1.32408 10.0151 1.16317C10.0817 1.00227 10.1945 0.864711 10.3393 0.767882C10.4841 0.671053 10.6543 0.619294 10.8284 0.619141H15.1189C15.3526 0.619141 15.5767 0.711972 15.7419 0.877214C15.9072 1.04246 16 1.26657 16 1.50026V5.79072C15.9998 5.96487 15.9481 6.13508 15.8513 6.27984C15.7544 6.42459 15.6169 6.53741 15.456 6.60403C15.2951 6.67066 15.118 6.68811 14.9472 6.65417C14.7764 6.62024 14.6194 6.53645 14.4962 6.41337L13.09 5.00594L9.91323 8.36711C9.75627 8.52912 9.56883 8.65851 9.36169 8.74784C9.15455 8.83716 8.9318 8.88467 8.70624 8.88761C8.48068 8.89056 8.25676 8.8489 8.04735 8.76501C7.83795 8.68113 7.64719 8.55668 7.48605 8.39883L7.47782 8.3906L5.46535 6.3793L2.00667 9.83916Z" fill="#81A141"/>
</svg>
