<svg width="40" height="41" viewBox="0 0 40 41" fill="none" xmlns="http://www.w3.org/2000/svg">
<rect x="0.5" y="0.901367" width="39" height="39" rx="19.5" fill="#F7F7F7"/>
<rect x="0.5" y="0.901367" width="39" height="39" rx="19.5" stroke="#EAEAEA"/>
<g clip-path="url(#clip0_652_10327)">
<path d="M27.5131 18.6807C26.4791 16.9967 24.1271 14.1714 19.9991 14.1714C15.8711 14.1714 13.5191 16.9967 12.4851 18.6807C12.1654 19.1977 11.9961 19.7935 11.9961 20.4014C11.9961 21.0092 12.1654 21.605 12.4851 22.1221C13.5191 23.8061 15.8711 26.6314 19.9991 26.6314C24.1271 26.6314 26.4791 23.8061 27.5131 22.1221C27.8327 21.605 28.002 21.0092 28.002 20.4014C28.002 19.7935 27.8327 19.1977 27.5131 18.6807ZM26.3764 21.4241C25.4884 22.8681 23.4784 25.2981 19.9991 25.2981C16.5197 25.2981 14.5097 22.8681 13.6217 21.4241C13.4318 21.1168 13.3312 20.7626 13.3312 20.4014C13.3312 20.0401 13.4318 19.686 13.6217 19.3787C14.5097 17.9347 16.5197 15.5047 19.9991 15.5047C23.4784 15.5047 25.4884 17.9321 26.3764 19.3787C26.5663 19.686 26.6669 20.0401 26.6669 20.4014C26.6669 20.7626 26.5663 21.1168 26.3764 21.4241Z" fill="#9E9E9E" style="mix-blend-mode:luminosity"/>
<path d="M20.0013 17.0679C19.342 17.0679 18.6976 17.2634 18.1494 17.6296C17.6012 17.9959 17.174 18.5165 16.9217 19.1256C16.6694 19.7347 16.6034 20.4049 16.732 21.0515C16.8606 21.6981 17.1781 22.2921 17.6443 22.7582C18.1105 23.2244 18.7044 23.5419 19.351 23.6705C19.9976 23.7991 20.6678 23.7331 21.2769 23.4808C21.886 23.2285 22.4066 22.8013 22.7729 22.2531C23.1391 21.7049 23.3346 21.0605 23.3346 20.4012C23.3336 19.5175 22.982 18.6702 22.3572 18.0454C21.7323 17.4205 20.885 17.0689 20.0013 17.0679ZM20.0013 22.4012C19.6057 22.4012 19.2191 22.2839 18.8902 22.0641C18.5613 21.8444 18.3049 21.532 18.1535 21.1666C18.0022 20.8011 17.9626 20.399 18.0397 20.011C18.1169 19.6231 18.3074 19.2667 18.5871 18.987C18.8668 18.7073 19.2232 18.5168 19.6111 18.4396C19.9991 18.3625 20.4012 18.4021 20.7667 18.5534C21.1321 18.7048 21.4445 18.9612 21.6642 19.2901C21.884 19.619 22.0013 20.0056 22.0013 20.4012C22.0013 20.9316 21.7906 21.4403 21.4155 21.8154C21.0404 22.1905 20.5317 22.4012 20.0013 22.4012Z" fill="#9E9E9E" style="mix-blend-mode:luminosity"/>
</g>
<defs>
<clipPath id="clip0_652_10327">
<rect width="16" height="16" fill="white" transform="translate(12 12.4014)"/>
</clipPath>
</defs>
</svg>
