<svg width="24" height="27" viewBox="0 0 24 27" fill="none" xmlns="http://www.w3.org/2000/svg">
<path fill-rule="evenodd" clip-rule="evenodd" d="M14.2058 1.064C14.2066 1.06446 14.2074 1.06492 14.2082 1.06538L20.9239 4.94823C20.9422 4.95886 20.9603 4.97013 20.9779 4.98201L21.0075 5.002C21.5932 5.39736 22.0757 5.72304 22.4469 6.01712C22.8304 6.32096 23.1609 6.64056 23.3967 7.04845C23.6378 7.46551 23.737 7.8999 23.7826 8.36312C23.8252 8.79658 23.8252 9.31829 23.8251 9.92694V17.0731C23.8252 17.6817 23.8252 18.2034 23.7826 18.6369C23.737 19.1001 23.6378 19.5345 23.3967 19.9515C23.1609 20.3594 22.8304 20.679 22.4469 20.9829C22.0757 21.277 21.5932 21.6026 21.0075 21.998L20.9779 22.018C20.9603 22.0299 20.9422 22.0411 20.9239 22.0518L14.2082 25.9346C14.2075 25.935 14.2068 25.9355 14.206 25.9359C13.5307 26.3306 12.6983 26.5 11.9172 26.5C11.1346 26.5 10.3006 26.33 9.62112 25.9371L2.90129 22.0518C2.8829 22.0411 2.86489 22.0299 2.84728 22.018L2.81766 21.998C2.23197 21.6027 1.74933 21.2769 1.37798 20.9825C0.99417 20.6782 0.663603 20.358 0.427883 19.949C0.187061 19.5312 0.0880115 19.0958 0.0425429 18.6313C-3.98106e-05 18.1964 -2.09326e-05 17.6725 1.01976e-06 17.0608V9.92692C-2.13521e-05 9.31828 -4.04398e-05 8.79658 0.0425813 8.36312C0.0881288 7.8999 0.187384 7.46551 0.428456 7.04845C0.664231 6.64056 0.9947 6.32096 1.37822 6.01712C1.74944 5.72304 2.23194 5.39736 2.81767 5.002L2.84728 4.98201C2.86489 4.97013 2.8829 4.95886 2.90129 4.94823L9.62112 1.06295C9.62115 1.06293 9.62117 1.06292 9.6212 1.0629C10.3006 0.669996 11.1347 0.5 11.9172 0.5C12.6982 0.5 13.5305 0.669414 14.2058 1.064ZM11.9172 2.3327C11.371 2.3327 10.8733 2.45593 10.5386 2.64945L10.5385 2.6495L3.84623 6.51887C3.23791 6.92951 2.82169 7.21171 2.51628 7.45366C2.21253 7.69429 2.08483 7.84508 2.01515 7.96562C1.95077 8.07699 1.8973 8.22907 1.86649 8.54246C1.83373 8.87566 1.83271 9.30666 1.83271 9.96897V17.0188C1.83271 17.6841 1.83372 18.1176 1.86653 18.4528C1.89742 18.7684 1.9511 18.9217 2.01573 19.0338C2.08546 19.1548 2.21306 19.3058 2.51652 19.5463C2.82179 19.7884 3.23787 20.0705 3.84622 20.4811L10.5385 24.3505L10.5386 24.3505C10.8733 24.5441 11.371 24.6673 11.9172 24.6673C12.4639 24.6673 12.9562 24.5439 13.2824 24.353C13.2838 24.3521 13.2852 24.3513 13.2866 24.3505L19.9789 20.4811C20.5872 20.0705 21.0035 19.7883 21.3089 19.5463C21.6126 19.3057 21.7403 19.1549 21.81 19.0344C21.8744 18.923 21.9278 18.7709 21.9587 18.4575C21.9914 18.1243 21.9924 17.6933 21.9924 17.031V9.96897C21.9924 9.30666 21.9914 8.87566 21.9587 8.54246C21.9278 8.22907 21.8744 8.07699 21.81 7.96562C21.7403 7.84508 21.6126 7.69429 21.3089 7.45366C21.0035 7.21171 20.5872 6.92951 19.9789 6.51887L13.2866 2.6495C13.2852 2.64868 13.2838 2.64785 13.2824 2.64703C12.9562 2.45613 12.4639 2.3327 11.9172 2.3327Z" fill="#846EEC"/>
<path opacity="0.45" fill-rule="evenodd" clip-rule="evenodd" d="M7.33008 13.5002C7.33008 10.9697 9.38135 8.91846 11.9118 8.91846C14.4423 8.91846 16.4936 10.9697 16.4936 13.5002C16.4936 16.0307 14.4423 18.082 11.9118 18.082C9.38135 18.082 7.33008 16.0307 7.33008 13.5002ZM11.9118 10.7512C10.3935 10.7512 9.16278 11.9819 9.16278 13.5002C9.16278 15.0185 10.3935 16.2493 11.9118 16.2493C13.4302 16.2493 14.6609 15.0185 14.6609 13.5002C14.6609 11.9819 13.4302 10.7512 11.9118 10.7512Z" fill="#846EEC"/>
</svg>
