<svg width="65" height="66" viewBox="0 0 65 66" fill="none" xmlns="http://www.w3.org/2000/svg">
<path opacity="0.1" d="M0 20.5C0 9.4543 8.95431 0.5 20 0.5H45C56.0457 0.5 65 9.45431 65 20.5V45.5C65 56.5457 56.0457 65.5 45 65.5H20C8.9543 65.5 0 56.5457 0 45.5V20.5Z" fill="#1C5AA5"/>
<path fill-rule="evenodd" clip-rule="evenodd" d="M18.8121 22.3121C20.2807 20.8434 22.5794 20.5 25.5429 20.5H40.4C43.3635 20.5 45.6621 20.8434 47.1308 22.3121C48.5994 23.7807 48.9429 26.0794 48.9429 29.0429V30.5286C48.9429 31.144 48.444 31.6429 47.8286 31.6429C46.3937 31.6429 45.2286 32.808 45.2286 34.2429C45.2286 35.6777 46.3937 36.8429 47.8286 36.8429C48.444 36.8429 48.9429 37.3417 48.9429 37.9571C48.9429 40.9206 48.5994 43.2193 47.1308 44.6879C45.6621 46.1566 43.3635 46.5 40.4 46.5H25.5429C22.5794 46.5 20.2807 46.1566 18.8121 44.6879C17.3434 43.2193 17 40.9206 17 37.9571V37.2143C17 36.5989 17.4989 36.1 18.1143 36.1C19.5492 36.1 20.7143 34.9349 20.7143 33.5C20.7143 32.0651 19.5492 30.9 18.1143 30.9C17.4989 30.9 17 30.4011 17 29.7857V29.0429C17 26.0794 17.3434 23.7807 18.8121 22.3121ZM19.2295 28.801C21.358 29.3047 22.9429 31.2181 22.9429 33.5C22.9429 35.7819 21.358 37.6953 19.2295 38.199C19.2508 41.0138 19.6488 42.373 20.3879 43.1121C21.1479 43.872 22.5635 44.2714 25.5429 44.2714H40.4C43.3794 44.2714 44.795 43.872 45.5549 43.1121C46.2261 42.4409 46.6161 41.2582 46.698 38.9382C44.5773 38.429 43 36.5192 43 34.2429C43 31.9606 44.5853 30.047 46.7143 29.5436V29.0429C46.7143 26.0635 46.3149 24.6479 45.5549 23.8879C44.795 23.128 43.3794 22.7286 40.4 22.7286H25.5429C22.5635 22.7286 21.1479 23.128 20.3879 23.8879C19.6488 24.627 19.2508 25.9862 19.2295 28.801Z" fill="#1C5AA5"/>
<path opacity="0.4" fill-rule="evenodd" clip-rule="evenodd" d="M38.2149 27.8835C38.6501 28.3187 38.6501 29.0242 38.2149 29.4593L29.3006 38.3736C28.8655 38.8088 28.16 38.8088 27.7248 38.3736C27.2896 37.9385 27.2896 37.2329 27.7248 36.7978L36.6391 27.8835C37.0742 27.4483 37.7798 27.4483 38.2149 27.8835Z" fill="#1C5AA5"/>
<path opacity="0.4" fill-rule="evenodd" clip-rule="evenodd" d="M35.9355 37.5853C35.9355 36.7648 36.6007 36.0996 37.4213 36.0996H37.4346C38.2552 36.0996 38.9203 36.7648 38.9203 37.5853C38.9203 38.4059 38.2552 39.071 37.4346 39.071H37.4213C36.6007 39.071 35.9355 38.4059 35.9355 37.5853Z" fill="#1C5AA5"/>
<path opacity="0.4" fill-rule="evenodd" clip-rule="evenodd" d="M27.0195 29.4149C27.0195 28.5944 27.6847 27.9292 28.5052 27.9292H28.5186C29.3391 27.9292 30.0043 28.5944 30.0043 29.4149C30.0043 30.2355 29.3391 30.9006 28.5186 30.9006H28.5052C27.6847 30.9006 27.0195 30.2355 27.0195 29.4149Z" fill="#1C5AA5"/>
</svg>
