<svg width="65" height="66" viewBox="0 0 65 66" fill="none" xmlns="http://www.w3.org/2000/svg">
<path opacity="0.1" d="M0 20.5C0 9.4543 8.95431 0.5 20 0.5H45C56.0457 0.5 65 9.45431 65 20.5V45.5C65 56.5457 56.0457 65.5 45 65.5H20C8.9543 65.5 0 56.5457 0 45.5V20.5Z" fill="#309972"/>
<path fill-rule="evenodd" clip-rule="evenodd" d="M33.1498 22.3327L22.2289 26.701L22.2289 26.701C22.2287 26.7011 22.2246 26.7028 22.2169 26.7076C22.2089 26.7126 22.1982 26.7202 22.1854 26.7312C22.1591 26.7538 22.1302 26.7855 22.104 26.8244C22.0777 26.8634 22.0591 26.9021 22.048 26.935C22.0374 26.9663 22.0365 26.9833 22.0364 26.9847C22.0364 26.9848 22.0364 26.9848 22.0364 26.9847V31.0165C22.0364 31.1813 22.1751 31.32 22.34 31.32H44.1988C44.3637 31.32 44.5024 31.1813 44.5024 31.0165V26.9847C44.5024 26.9848 44.5024 26.9848 44.5024 26.9847C44.5023 26.9833 44.5014 26.9663 44.4908 26.935C44.4796 26.9021 44.4611 26.8633 44.4348 26.8244C44.4085 26.7855 44.3797 26.7538 44.3534 26.7312C44.3406 26.7202 44.3299 26.7126 44.3218 26.7076C44.3138 26.7026 44.3097 26.7009 44.3098 26.701L33.389 22.3327C33.3856 22.3319 33.3785 22.3303 33.3675 22.3286C33.342 22.3245 33.3079 22.3216 33.2694 22.3216C33.2309 22.3216 33.1968 22.3245 33.1713 22.3286C33.1603 22.3303 33.1532 22.3319 33.1498 22.3327ZM33.2694 20.5C33.5047 20.5 33.7932 20.5325 34.057 20.638L44.9864 25.0097C45.4029 25.1763 45.7279 25.4838 45.9452 25.8062C46.1623 26.1282 46.3239 26.5422 46.3239 26.9847V31.0165C46.3239 32.1874 45.3697 33.1416 44.1988 33.1416H22.34C21.1691 33.1416 20.2148 32.1874 20.2148 31.0165V26.9847C20.2148 26.5422 20.3765 26.1282 20.5935 25.8062C20.8109 25.4838 21.1359 25.1763 21.5524 25.0097L21.8688 25.8006L21.5524 25.0097L32.4818 20.638C32.7456 20.5325 33.0341 20.5 33.2694 20.5Z" fill="#A9C370"/>
<path fill-rule="evenodd" clip-rule="evenodd" d="M22.34 41.6424C22.1751 41.6424 22.0364 41.7811 22.0364 41.946V44.6783H44.5024V41.946C44.5024 41.7811 44.3637 41.6424 44.1988 41.6424H22.34ZM20.2148 41.946C20.2148 40.775 21.1691 39.8208 22.34 39.8208H44.1988C45.3697 39.8208 46.3239 40.775 46.3239 41.946V45.5891C46.3239 46.0921 45.9162 46.4999 45.4132 46.4999H21.1256C20.6226 46.4999 20.2148 46.0921 20.2148 45.5891V41.946Z" fill="#A9C370"/>
<path opacity="0.4" fill-rule="evenodd" clip-rule="evenodd" d="M23.5534 31.3203C24.0564 31.3203 24.4641 31.7281 24.4641 32.2311V40.7317C24.4641 41.2347 24.0564 41.6425 23.5534 41.6425C23.0503 41.6425 22.6426 41.2347 22.6426 40.7317V32.2311C22.6426 31.7281 23.0503 31.3203 23.5534 31.3203Z" fill="#A9C370"/>
<path opacity="0.4" fill-rule="evenodd" clip-rule="evenodd" d="M28.4108 31.3203C28.9138 31.3203 29.3216 31.7281 29.3216 32.2311V40.7317C29.3216 41.2347 28.9138 41.6425 28.4108 41.6425C27.9078 41.6425 27.5 41.2347 27.5 40.7317V32.2311C27.5 31.7281 27.9078 31.3203 28.4108 31.3203Z" fill="#A9C370"/>
<path opacity="0.4" fill-rule="evenodd" clip-rule="evenodd" d="M33.2682 31.3203C33.7712 31.3203 34.179 31.7281 34.179 32.2311V40.7317C34.179 41.2347 33.7712 41.6425 33.2682 41.6425C32.7652 41.6425 32.3574 41.2347 32.3574 40.7317V32.2311C32.3574 31.7281 32.7652 31.3203 33.2682 31.3203Z" fill="#A9C370"/>
<path opacity="0.4" fill-rule="evenodd" clip-rule="evenodd" d="M38.1256 31.3203C38.6286 31.3203 39.0364 31.7281 39.0364 32.2311V40.7317C39.0364 41.2347 38.6286 41.6425 38.1256 41.6425C37.6226 41.6425 37.2148 41.2347 37.2148 40.7317V32.2311C37.2148 31.7281 37.6226 31.3203 38.1256 31.3203Z" fill="#A9C370"/>
<path opacity="0.4" fill-rule="evenodd" clip-rule="evenodd" d="M42.985 31.3203C43.488 31.3203 43.8958 31.7281 43.8958 32.2311V40.7317C43.8958 41.2347 43.488 41.6425 42.985 41.6425C42.482 41.6425 42.0742 41.2347 42.0742 40.7317V32.2311C42.0742 31.7281 42.482 31.3203 42.985 31.3203Z" fill="#A9C370"/>
<path fill-rule="evenodd" clip-rule="evenodd" d="M19 45.589C19 45.086 19.4078 44.6782 19.9108 44.6782H46.6271C47.1301 44.6782 47.5378 45.086 47.5378 45.589C47.5378 46.092 47.1301 46.4998 46.6271 46.4998H19.9108C19.4078 46.4998 19 46.092 19 45.589Z" fill="#A9C370"/>
<path opacity="0.4" fill-rule="evenodd" clip-rule="evenodd" d="M30.5371 27.3735C30.5371 25.8644 31.7605 24.6411 33.2695 24.6411C34.7784 24.6411 36.0018 25.8644 36.0018 27.3735C36.0018 28.8825 34.7784 30.1058 33.2695 30.1058C31.7605 30.1058 30.5371 28.8825 30.5371 27.3735ZM33.2695 26.4627C32.7665 26.4627 32.3587 26.8705 32.3587 27.3735C32.3587 27.8765 32.7665 28.2842 33.2695 28.2842C33.7724 28.2842 34.1802 27.8765 34.1802 27.3735C34.1802 26.8705 33.7724 26.4627 33.2695 26.4627Z" fill="#A9C370"/>
</svg>
