<svg width="65" height="66" viewBox="0 0 65 66" fill="none" xmlns="http://www.w3.org/2000/svg">
<path opacity="0.1" fill-rule="evenodd" clip-rule="evenodd" d="M0 33V45.5C0 56.5457 8.9543 65.5 20 65.5H32.5H45C56.0457 65.5 65 56.5457 65 45.5V33V20.5C65 9.45431 56.0457 0.5 45 0.5H32.5H20C8.95431 0.5 0 9.4543 0 20.5V33Z" fill="#19B2BB"/>
<path fill-rule="evenodd" clip-rule="evenodd" d="M17 27.5809C17 26.9988 17.4719 26.5269 18.0541 26.5269H35.6216C36.2037 26.5269 36.6756 26.9988 36.6756 27.5809C36.6756 28.163 36.2037 28.635 35.6216 28.635H18.0541C17.4719 28.635 17 28.163 17 27.5809Z" fill="#19B2BB"/>
<path opacity="0.4" fill-rule="evenodd" clip-rule="evenodd" d="M22.6211 38.8246C22.6211 38.2424 23.093 37.7705 23.6751 37.7705H26.486C27.0681 37.7705 27.54 38.2424 27.54 38.8246C27.54 39.4067 27.0681 39.8786 26.486 39.8786H23.6751C23.093 39.8786 22.6211 39.4067 22.6211 38.8246Z" fill="#19B2BB"/>
<path opacity="0.4" fill-rule="evenodd" clip-rule="evenodd" d="M28.9453 38.8246C28.9453 38.2424 29.4172 37.7705 29.9994 37.7705H35.621C36.2031 37.7705 36.675 38.2424 36.675 38.8246C36.675 39.4067 36.2031 39.8786 35.621 39.8786H29.9994C29.4172 39.8786 28.9453 39.4067 28.9453 38.8246Z" fill="#19B2BB"/>
<path fill-rule="evenodd" clip-rule="evenodd" d="M20.0442 22.5386C19.4468 23.1292 19.1081 24.2519 19.1081 26.7238V38.2762C19.1081 40.748 19.4468 41.8707 20.0442 42.4614C20.6457 43.0561 21.791 43.3919 24.294 43.3919H39.9221C42.4251 43.3919 43.5704 43.0561 44.172 42.4614C44.7694 41.8707 45.1081 40.748 45.1081 38.2762V35.3529C45.1081 34.7708 45.58 34.2989 46.1621 34.2989C46.7443 34.2989 47.2162 34.7708 47.2162 35.3529V38.2762C47.2162 40.7373 46.9295 42.6995 45.6542 43.9604C44.383 45.2173 42.4083 45.5 39.9221 45.5H24.294C21.8079 45.5 19.8332 45.2173 18.562 43.9604C17.2867 42.6995 17 40.7373 17 38.2762V26.7238C17 24.2627 17.2867 22.3005 18.562 21.0395C19.8332 19.7827 21.8079 19.5 24.294 19.5H35.6216C36.2037 19.5 36.6756 19.9719 36.6756 20.5541C36.6756 21.1362 36.2037 21.6081 35.6216 21.6081H24.294C21.791 21.6081 20.6457 21.9438 20.0442 22.5386Z" fill="#19B2BB"/>
<path fill-rule="evenodd" clip-rule="evenodd" d="M42.9476 19.5803C43.3414 19.4171 43.7948 19.5073 44.0963 19.8088L46.9071 22.6196C47.3187 23.0312 47.3187 23.6986 46.9071 24.1102C46.4954 24.5219 45.828 24.5219 45.4164 24.1102L44.405 23.0988V28.9865C44.405 29.5686 43.9331 30.0406 43.3509 30.0406C42.7688 30.0406 42.2969 29.5686 42.2969 28.9865V20.5541C42.2969 20.1278 42.5537 19.7434 42.9476 19.5803Z" fill="#19B2BB"/>
<path fill-rule="evenodd" clip-rule="evenodd" d="M44.0965 19.8087C44.5081 20.2204 44.5081 20.8877 44.0965 21.2994L41.2857 24.1102C40.8741 24.5218 40.2067 24.5218 39.7951 24.1102C39.3834 23.6986 39.3834 23.0312 39.7951 22.6195L42.6059 19.8087C43.0175 19.3971 43.6849 19.3971 44.0965 19.8087Z" fill="#19B2BB"/>
</svg>
