<svg width="16" height="18" viewBox="0 0 16 18" fill="none" xmlns="http://www.w3.org/2000/svg">
<rect x="16" y="17.0654" width="16" height="16.1308" rx="8" transform="rotate(-180 16 17.0654)" fill="#FF5B5B" fill-opacity="0.15"/>
<g clip-path="url(#clip0_414_18126)">
<path d="M6.02165 9.80994L7.66871 11.4705C7.75696 11.5594 7.87663 11.6094 8.00142 11.6094C8.1262 11.6094 8.24587 11.5594 8.33412 11.4705L9.98118 9.80994C10.0669 9.72046 10.1143 9.60062 10.1133 9.47623C10.1122 9.35183 10.0627 9.23284 9.97545 9.14487C9.8882 9.05691 9.77017 9.00701 9.64678 9.00593C9.5234 9.00485 9.40452 9.05267 9.31577 9.13909L8.472 9.98976L8.47201 6.86513C8.47201 6.7393 8.42243 6.61862 8.33417 6.52965C8.24592 6.44068 8.12622 6.39069 8.00142 6.39069C7.87661 6.39069 7.75691 6.44068 7.66866 6.52965C7.58041 6.61862 7.53083 6.7393 7.53083 6.86513L7.53083 9.98976L6.68706 9.13909C6.59831 9.05267 6.47944 9.00485 6.35605 9.00593C6.23266 9.00701 6.11463 9.05691 6.02738 9.14487C5.94013 9.23284 5.89064 9.35183 5.88957 9.47623C5.8885 9.60062 5.93593 9.72046 6.02165 9.80994Z" fill="#FF5B5B"/>
</g>
<defs>
<clipPath id="clip0_414_18126">
<rect width="5.64706" height="5.69322" fill="white" transform="translate(10.8242 11.8467) rotate(-180)"/>
</clipPath>
</defs>
</svg>
