<svg width="40" height="40" viewBox="0 0 40 40" fill="none" xmlns="http://www.w3.org/2000/svg">
<rect width="40" height="40" rx="20" fill="#F6F9EC"/>
<path fill-rule="evenodd" clip-rule="evenodd" d="M14.0067 24.4378C13.7862 24.6582 13.4872 24.7821 13.1755 24.7821C12.8637 24.7821 12.5647 24.6582 12.3443 24.4378C12.1238 24.2174 12 23.9184 12 23.6066C12 23.2949 12.1238 22.9959 12.3443 22.7754L16.26 18.8609L16.2682 18.8527C16.5881 18.5393 17.0181 18.3638 17.4659 18.3638C17.9138 18.3638 18.3437 18.5393 18.6637 18.8527L18.6719 18.8609L20.6703 20.8593L23.4276 17.9434L22.2058 16.7215C22.0827 16.5983 21.9989 16.4414 21.965 16.2706C21.931 16.0998 21.9485 15.9227 22.0151 15.7618C22.0817 15.6009 22.1945 15.4633 22.3393 15.3665C22.4841 15.2697 22.6543 15.2179 22.8284 15.2178H27.1189C27.3526 15.2178 27.5767 15.3106 27.7419 15.4758C27.9072 15.6411 28 15.8652 28 16.0989V20.3893C27.9998 20.5635 27.9481 20.7337 27.8513 20.8785C27.7544 21.0232 27.6169 21.136 27.456 21.2027C27.2951 21.2693 27.118 21.2867 26.9472 21.2528C26.7764 21.2189 26.6194 21.1351 26.4962 21.012L25.09 19.6046L21.9132 22.9657C21.7563 23.1278 21.5688 23.2571 21.3617 23.3465C21.1545 23.4358 20.9318 23.4833 20.7062 23.4862C20.4807 23.4892 20.2568 23.4475 20.0474 23.3636C19.838 23.2798 19.6472 23.1553 19.486 22.9975L19.4778 22.9892L17.4653 20.9779L14.0067 24.4378Z" fill="#81A141"/>
</svg>
