<svg width="40" height="40" viewBox="0 0 40 40" fill="none" xmlns="http://www.w3.org/2000/svg">
<rect width="40" height="40" rx="20" fill="#FFFBEB"/>
<path d="M26.3202 27H13.6798C12.3872 27 11.5815 25.6253 12.2278 24.5305L18.548 13.8211C19.1942 12.7263 20.8058 12.7263 21.452 13.8211L27.7722 24.5305C28.4185 25.6253 27.6128 27 26.3202 27ZM20 21.2378C20.4616 21.2378 20.8393 20.8674 20.8393 20.4147V18.7683C20.8393 18.3156 20.4616 17.9452 20 17.9452C19.5384 17.9452 19.1607 18.3156 19.1607 18.7683V20.4147C19.1607 20.8674 19.5384 21.2378 20 21.2378ZM19.1607 24.5305H20.8393V22.8842H19.1607V24.5305Z" fill="#F49D0C"/>
</svg>
