<svg width="32" height="27" viewBox="0 0 32 27" fill="none" xmlns="http://www.w3.org/2000/svg">
<path fill-rule="evenodd" clip-rule="evenodd" d="M1.81208 2.31208C3.28072 0.843444 5.57939 0.5 8.54286 0.5H23.4C26.3635 0.5 28.6621 0.843444 30.1308 2.31208C31.5994 3.78072 31.9429 6.07939 31.9429 9.04286V10.5286C31.9429 11.144 31.444 11.6429 30.8286 11.6429C29.3937 11.6429 28.2286 12.808 28.2286 14.2429C28.2286 15.6777 29.3937 16.8429 30.8286 16.8429C31.444 16.8429 31.9429 17.3417 31.9429 17.9571C31.9429 20.9206 31.5994 23.2193 30.1308 24.6879C28.6621 26.1566 26.3635 26.5 23.4 26.5H8.54286C5.57939 26.5 3.28072 26.1566 1.81208 24.6879C0.343444 23.2193 0 20.9206 0 17.9571V17.2143C0 16.5989 0.498883 16.1 1.11429 16.1C2.54917 16.1 3.71429 14.9349 3.71429 13.5C3.71429 12.0651 2.54917 10.9 1.11429 10.9C0.498883 10.9 0 10.4011 0 9.78571V9.04286C0 6.07939 0.343444 3.78072 1.81208 2.31208ZM2.22947 8.80098C4.35796 9.30467 5.94286 11.2181 5.94286 13.5C5.94286 15.7819 4.35796 17.6953 2.22947 18.199C2.25077 21.0138 2.64885 22.373 3.38792 23.1121C4.14785 23.872 5.56347 24.2714 8.54286 24.2714H23.4C26.3794 24.2714 27.795 23.872 28.5549 23.1121C29.2261 22.4409 29.6161 21.2582 29.698 18.9382C27.5773 18.429 26 16.5192 26 14.2429C26 11.9606 27.5853 10.047 29.7143 9.54363V9.04286C29.7143 6.06347 29.3149 4.64785 28.5549 3.88792C27.795 3.12798 26.3794 2.72857 23.4 2.72857H8.54286C5.56347 2.72857 4.14785 3.12798 3.38792 3.88792C2.64885 4.62699 2.25077 5.98623 2.22947 8.80098Z" fill="#1C5AA5"/>
<path opacity="0.4" fill-rule="evenodd" clip-rule="evenodd" d="M21.2149 7.8835C21.6501 8.31865 21.6501 9.02418 21.2149 9.45933L12.3006 18.3736C11.8655 18.8088 11.16 18.8088 10.7248 18.3736C10.2896 17.9385 10.2896 17.2329 10.7248 16.7978L19.6391 7.8835C20.0742 7.44834 20.7798 7.44834 21.2149 7.8835Z" fill="#1C5AA5"/>
<path opacity="0.4" fill-rule="evenodd" clip-rule="evenodd" d="M18.9355 17.5853C18.9355 16.7648 19.6007 16.0996 20.4213 16.0996H20.4346C21.2552 16.0996 21.9203 16.7648 21.9203 17.5853C21.9203 18.4059 21.2552 19.071 20.4346 19.071H20.4213C19.6007 19.071 18.9355 18.4059 18.9355 17.5853Z" fill="#1C5AA5"/>
<path opacity="0.4" fill-rule="evenodd" clip-rule="evenodd" d="M10.0195 9.41491C10.0195 8.59438 10.6847 7.9292 11.5052 7.9292H11.5186C12.3391 7.9292 13.0043 8.59438 13.0043 9.41491C13.0043 10.2355 12.3391 10.9006 11.5186 10.9006H11.5052C10.6847 10.9006 10.0195 10.2355 10.0195 9.41491Z" fill="#1C5AA5"/>
</svg>
