<svg width="20" height="21" viewBox="0 0 20 21" fill="none" xmlns="http://www.w3.org/2000/svg">
<g opacity="0.1">
<path fill-rule="evenodd" clip-rule="evenodd" d="M10 19.0195C14.9706 19.0195 19 14.9901 19 10.0195C19 5.04897 14.9706 1.01953 10 1.01953C5.02944 1.01953 1 5.04897 1 10.0195C1 14.9901 5.02944 19.0195 10 19.0195ZM10 6.76953C8.2051 6.76953 6.75 8.22463 6.75 10.0195C6.75 11.8144 8.2051 13.2695 10 13.2695C11.7949 13.2695 13.25 11.8144 13.25 10.0195C13.25 8.22463 11.7949 6.76953 10 6.76953Z" fill="#9E9E9E" style="mix-blend-mode:luminosity"/>
</g>
<path fill-rule="evenodd" clip-rule="evenodd" d="M10 2.01953C5.58173 2.01953 2 5.60126 2 10.0195C2 14.4378 5.58172 18.0195 10 18.0195C14.4183 18.0195 18 14.4378 18 10.0195C18 5.60125 14.4183 2.01953 10 2.01953ZM0 10.0195C0 4.49669 4.47716 0.0195312 10 0.0195312C15.5229 0.0195312 20 4.49669 20 10.0195C20 15.5424 15.5229 20.0195 10 20.0195C4.47716 20.0195 0 15.5424 0 10.0195Z" fill="#9E9E9E" style="mix-blend-mode:luminosity"/>
<path fill-rule="evenodd" clip-rule="evenodd" d="M10 8.01953C8.89538 8.01953 8 8.91492 8 10.0195C8 11.1241 8.89538 12.0195 10 12.0195C11.1046 12.0195 12 11.1241 12 10.0195C12 8.91492 11.1046 8.01953 10 8.01953ZM6 10.0195C6 7.81035 7.79081 6.01953 10 6.01953C12.2092 6.01953 14 7.81035 14 10.0195C14 12.2287 12.2092 14.0195 10 14.0195C7.79081 14.0195 6 12.2287 6 10.0195Z" fill="#9E9E9E" style="mix-blend-mode:luminosity"/>
<path fill-rule="evenodd" clip-rule="evenodd" d="M3.29289 3.31242C3.68342 2.9219 4.31658 2.9219 4.70711 3.31242L8.20711 6.81242C8.59763 7.20295 8.59763 7.83611 8.20711 8.22664C7.81658 8.61716 7.18342 8.61716 6.79289 8.22664L3.29289 4.72664C2.90237 4.33611 2.90237 3.70295 3.29289 3.31242Z" fill="#9E9E9E" style="mix-blend-mode:luminosity"/>
<path fill-rule="evenodd" clip-rule="evenodd" d="M16.7071 3.31242C17.0976 3.70295 17.0976 4.33611 16.7071 4.72664L13.2071 8.22664C12.8166 8.61716 12.1834 8.61716 11.7929 8.22664C11.4024 7.83611 11.4024 7.20295 11.7929 6.81242L15.2929 3.31242C15.6834 2.9219 16.3166 2.9219 16.7071 3.31242Z" fill="#9E9E9E" style="mix-blend-mode:luminosity"/>
<path fill-rule="evenodd" clip-rule="evenodd" d="M11.7929 11.8124C12.1834 11.4219 12.8166 11.4219 13.2071 11.8124L16.7071 15.3124C17.0976 15.7029 17.0976 16.3361 16.7071 16.7266C16.3166 17.1172 15.6834 17.1172 15.2929 16.7266L11.7929 13.2266C11.4024 12.8361 11.4024 12.2029 11.7929 11.8124Z" fill="#9E9E9E" style="mix-blend-mode:luminosity"/>
<path fill-rule="evenodd" clip-rule="evenodd" d="M8.20711 11.8124C8.59763 12.2029 8.59763 12.8361 8.20711 13.2266L4.70711 16.7266C4.31658 17.1172 3.68342 17.1172 3.29289 16.7266C2.90237 16.3361 2.90237 15.7029 3.29289 15.3124L6.79289 11.8124C7.18342 11.4219 7.81658 11.4219 8.20711 11.8124Z" fill="#9E9E9E" style="mix-blend-mode:luminosity"/>
</svg>
