<svg width="20" height="21" viewBox="0 0 20 21" fill="none" xmlns="http://www.w3.org/2000/svg">
<g opacity="0.1">
<path d="M1 8.20939V13.7526C1 14.283 1.21071 14.7917 1.58579 15.1668L5.81421 19.3952C6.18929 19.7703 6.69799 19.981 7.22843 19.981H12.7716C13.302 19.981 13.8107 19.7703 14.1858 19.3952L18.4142 15.1668C18.7893 14.7917 19 14.283 19 13.7526V8.20939C19 7.67895 18.7893 7.17025 18.4142 6.79517L14.1858 2.56675C13.8107 2.19167 13.302 1.98096 12.7716 1.98096H7.22843C6.69799 1.98096 6.18929 2.19167 5.81421 2.56675L1.58579 6.79517C1.21071 7.17025 1 7.67895 1 8.20939Z" fill="#9E9E9E" style="mix-blend-mode:luminosity"/>
</g>
<path fill-rule="evenodd" clip-rule="evenodd" d="M5.1071 1.85964C5.66972 1.29702 6.43277 0.980957 7.22843 0.980957H12.7716C13.5672 0.980957 14.3303 1.29703 14.8929 1.85962L14.8929 1.85964L19.1213 6.08804C19.6839 6.65067 20 7.41374 20 8.20939V13.7526C20 14.5482 19.6839 15.3112 19.1213 15.8739L14.8929 20.1023C14.3303 20.6649 13.5672 20.981 12.7716 20.981H7.22843C6.43278 20.981 5.66972 20.6649 5.10708 20.1022L0.878685 15.8739L0.878664 15.8738C0.316077 15.3112 0 14.5482 0 13.7526V8.20939C0 7.41373 0.316067 6.65068 0.878683 6.08806L5.1071 1.85964ZM7.22843 2.98096C6.96321 2.98096 6.70886 3.08631 6.52132 3.27385L2.2929 7.50227C2.10535 7.68982 2 7.94416 2 8.20939V13.7526C2 14.0177 2.10534 14.2721 2.29292 14.4597L6.52131 18.688L6.52134 18.6881C6.70886 18.8756 6.9632 18.981 7.22843 18.981H12.7716C13.0368 18.981 13.2911 18.8756 13.4787 18.688L17.7071 14.4597C17.8947 14.2721 18 14.0177 18 13.7526V8.20939C18 7.94415 17.8947 7.68982 17.7071 7.50229L17.7071 7.50227L13.4787 3.27387C13.2911 3.0863 13.0368 2.98096 12.7716 2.98096H7.22843Z" fill="#9E9E9E" style="mix-blend-mode:luminosity"/>
<path fill-rule="evenodd" clip-rule="evenodd" d="M10 5.98096C10.5523 5.98096 11 6.42867 11 6.98096V11.981C11 12.5332 10.5523 12.981 10 12.981C9.44772 12.981 9 12.5332 9 11.981V6.98096C9 6.42867 9.44772 5.98096 10 5.98096Z" fill="#9E9E9E" style="mix-blend-mode:luminosity"/>
<path fill-rule="evenodd" clip-rule="evenodd" d="M10 13.9697C10.5523 13.9697 11 14.4174 11 14.9697V14.9809C11 15.5332 10.5523 15.9809 10 15.9809C9.44772 15.9809 9 15.5332 9 14.9809V14.9697C9 14.4174 9.44772 13.9697 10 13.9697Z" fill="#9E9E9E" style="mix-blend-mode:luminosity"/>
</svg>
