<svg width="20" height="22" viewBox="0 0 20 22" fill="none" xmlns="http://www.w3.org/2000/svg">
<path fill-rule="evenodd" clip-rule="evenodd" d="M9.81886 2.17475L9.81893 2.17479L9.81886 2.17475ZM9.99998 2.27664L2.22222 6.65164V15.1283L10 19.7121L17.7778 15.1283V6.65166L9.99998 2.27664ZM17.9114 6.72682C17.9112 6.72673 17.9111 6.72665 17.9109 6.72656L17.9114 6.72682ZM10.9084 0.237961C10.3445 -0.07928 9.65579 -0.0793203 9.09181 0.23784C9.09172 0.237894 9.09162 0.237947 9.09153 0.238001L1.06784 4.75132L1.0506 4.76102C1.0506 4.76102 1.0506 4.76102 1.0506 4.76102C0.401612 5.12607 0 5.81279 0 6.55737V15.2567C0 15.9639 0.373903 16.6185 0.983265 16.9776L9.01475 21.7108L9.01489 21.7109C9.62282 22.0691 10.3772 22.0691 10.9851 21.7109L19.0167 16.9776L19.0167 16.9776C19.6259 16.6185 20 15.964 20 15.2567V6.49833C20 5.79019 19.618 5.13713 19.0008 4.78997C19.0008 4.78997 19.0009 4.78998 19.0008 4.78997L10.9085 0.238001" fill="#9E9E9E" style="mix-blend-mode:luminosity"/>
<path fill-rule="evenodd" clip-rule="evenodd" d="M11.1128 11.002V21.002H8.89062V11.002H11.1128Z" fill="#9E9E9E" style="mix-blend-mode:luminosity"/>
<path fill-rule="evenodd" clip-rule="evenodd" d="M1.65588 5.0332L10.5448 10.0332L9.4553 11.97L0.566406 6.97004L1.65588 5.0332Z" fill="#9E9E9E" style="mix-blend-mode:luminosity"/>
<path fill-rule="evenodd" clip-rule="evenodd" d="M9.45898 10.0332L18.3479 5.0332L19.4373 6.97004L10.5485 11.97L9.45898 10.0332Z" fill="#9E9E9E" style="mix-blend-mode:luminosity"/>
<g opacity="0.1">
<path d="M1.10938 15.2567C1.10938 15.5705 1.27532 15.8609 1.54568 16.0203L9.57715 20.7536C9.83704 20.9067 10.1595 20.9067 10.4194 20.7536L18.4508 16.0203C18.7211 15.8609 18.8872 15.5705 18.8872 15.2567V6.4983C18.8872 6.44117 18.8814 6.38486 18.8704 6.33008L10.1345 11.244H9.86204L1.13564 6.33539C1.11839 6.4072 1.10938 6.48162 1.10938 6.55733V15.2567Z" fill="#9E9E9E" style="mix-blend-mode:luminosity"/>
</g>
</svg>
