<svg width="20" height="21" viewBox="0 0 20 21" fill="none" xmlns="http://www.w3.org/2000/svg">
<g opacity="0.1">
<path d="M0.998047 4.98018C0.998047 6.63713 2.34128 7.98037 3.99824 7.98037C5.6552 7.98037 6.99844 6.63713 6.99844 4.98018C6.99844 3.32322 5.6552 1.97998 3.99824 1.97998C2.34128 1.97998 0.998047 3.32322 0.998047 4.98018Z" fill="#9E9E9E" style="mix-blend-mode:luminosity"/>
</g>
<g opacity="0.1">
<path d="M0.998047 16.9807C0.998047 18.6377 2.34128 19.9809 3.99824 19.9809C5.6552 19.9809 6.99844 18.6377 6.99844 16.9807C6.99844 15.3237 5.6552 13.9805 3.99824 13.9805C2.34128 13.9805 0.998047 15.3237 0.998047 16.9807Z" fill="#9E9E9E" style="mix-blend-mode:luminosity"/>
</g>
<g opacity="0.1">
<path d="M13.002 4.98018C13.002 6.63713 14.3451 7.98037 16.0021 7.98037C17.6592 7.98037 19.0023 6.63713 19.0023 4.98018C19.0023 3.32322 17.6592 1.97998 16.0021 1.97998C14.3451 1.97998 13.002 3.32322 13.002 4.98018Z" fill="#9E9E9E" style="mix-blend-mode:luminosity"/>
</g>
<path fill-rule="evenodd" clip-rule="evenodd" d="M0 4.97975C0 2.77047 1.79098 0.979492 4.00026 0.979492C6.20954 0.979492 8.00052 2.77047 8.00052 4.97975C8.00052 7.18903 6.20954 8.98001 4.00026 8.98001C1.79098 8.98001 0 7.18903 0 4.97975ZM4.00026 2.97962C2.89562 2.97962 2.00013 3.87512 2.00013 4.97975C2.00013 6.08439 2.89562 6.97988 4.00026 6.97988C5.1049 6.97988 6.00039 6.08439 6.00039 4.97975C6.00039 3.87512 5.1049 2.97962 4.00026 2.97962Z" fill="#9E9E9E" style="mix-blend-mode:luminosity"/>
<path fill-rule="evenodd" clip-rule="evenodd" d="M0 16.9807C0 14.7714 1.79099 12.9805 4.00026 12.9805C6.20953 12.9805 8.00052 14.7714 8.00052 16.9807C8.00052 19.1901 6.20953 20.981 4.00026 20.981C1.79099 20.981 0 19.1901 0 16.9807ZM4.00026 14.9806C2.89561 14.9806 2.00013 15.8761 2.00013 16.9807C2.00013 18.0854 2.89561 18.9809 4.00026 18.9809C5.10491 18.9809 6.00039 18.0854 6.00039 16.9807C6.00039 15.8761 5.10491 14.9806 4.00026 14.9806Z" fill="#9E9E9E" style="mix-blend-mode:luminosity"/>
<path fill-rule="evenodd" clip-rule="evenodd" d="M11.998 4.97975C11.998 2.77048 13.789 0.979492 15.9983 0.979492C18.2076 0.979492 19.9986 2.77048 19.9986 4.97975C19.9986 7.18902 18.2076 8.98001 15.9983 8.98001C13.789 8.98001 11.998 7.18902 11.998 4.97975ZM15.9983 2.97962C14.8936 2.97962 13.9982 3.8751 13.9982 4.97975C13.9982 6.0844 14.8936 6.97988 15.9983 6.97988C17.103 6.97988 17.9984 6.0844 17.9984 4.97975C17.9984 3.8751 17.103 2.97962 15.9983 2.97962Z" fill="#9E9E9E" style="mix-blend-mode:luminosity"/>
<path fill-rule="evenodd" clip-rule="evenodd" d="M4.00007 6.97998C4.55239 6.97998 5.00013 7.42772 5.00013 7.98005V13.9804C5.00013 14.5328 4.55239 14.9805 4.00007 14.9805C3.44774 14.9805 3 14.5328 3 13.9804V7.98005C3 7.42772 3.44774 6.97998 4.00007 6.97998Z" fill="#9E9E9E" style="mix-blend-mode:luminosity"/>
<path fill-rule="evenodd" clip-rule="evenodd" d="M15.9987 6.97998C16.551 6.97998 16.9988 7.42772 16.9988 7.98005V11.3045C16.9988 13.6104 16.768 15.459 15.5408 16.6215C14.9221 17.2074 14.1344 17.5394 13.2305 17.7297C12.335 17.9182 11.2615 17.9807 10.0063 17.9807H6.99811C6.44579 17.9807 5.99805 17.533 5.99805 16.9806C5.99805 16.4283 6.44579 15.9806 6.99811 15.9806H10.0063C11.2185 15.9806 12.1277 15.9179 12.8184 15.7724C13.5007 15.6288 13.9027 15.4181 14.1653 15.1694C14.7006 14.6623 14.9986 13.6728 14.9986 11.3045V7.98005C14.9986 7.42772 15.4464 6.97998 15.9987 6.97998Z" fill="#9E9E9E" style="mix-blend-mode:luminosity"/>
</svg>
