<svg width="20" height="21" viewBox="0 0 20 21" fill="none" xmlns="http://www.w3.org/2000/svg">
<g opacity="0.1">
<path fill-rule="evenodd" clip-rule="evenodd" d="M14.0192 15.003C15.3125 13.7096 16.382 12.3349 17.1935 10.9811C16.382 9.62719 15.3125 8.25242 14.0192 6.95901C12.7257 5.66561 11.351 4.59616 9.99716 3.78467C8.64326 4.59615 7.26855 5.6656 5.97518 6.95899C4.68176 8.2524 3.61228 9.62719 2.80078 10.9811C3.61227 12.3349 4.68173 13.7096 5.97511 15.003C7.2685 16.2965 8.64326 17.3659 9.99716 18.1773C11.3511 17.3659 12.7258 16.2964 14.0192 15.003ZM9.99716 8.71857C8.74763 8.71857 7.73475 9.73146 7.73475 10.9809C7.73475 12.2304 8.74763 13.2433 9.99716 13.2433C11.2466 13.2433 12.2595 12.2304 12.2595 10.9809C12.2595 9.73146 11.2466 8.71857 9.99716 8.71857Z" fill="#9E9E9E" style="mix-blend-mode:luminosity"/>
</g>
<path fill-rule="evenodd" clip-rule="evenodd" d="M6.83412 3.4029C4.76399 2.71285 3.35934 2.95169 2.66308 3.64794C1.96682 4.3442 1.72798 5.74887 2.41803 7.81903C3.08682 9.82539 4.55024 12.1572 6.68508 14.292C8.81993 16.4268 11.1517 17.8902 13.1581 18.559C15.2282 19.2491 16.6328 19.0102 17.3291 18.314C18.0254 17.6177 18.2642 16.213 17.5741 14.1429C16.9054 12.1365 15.4419 9.80479 13.3071 7.66996L13.9328 7.04428L13.3071 7.66995C11.1722 5.5351 8.84047 4.07168 6.83412 3.4029ZM7.47006 1.4951C9.83073 2.28199 12.4213 3.94022 14.7291 6.24796C17.0368 8.55569 18.695 11.1463 19.4819 13.507C20.2476 15.8039 20.2761 18.2109 18.7511 19.736C17.226 21.261 14.819 21.2324 12.5221 20.4668C10.1614 19.6799 7.57084 18.0217 5.2631 15.714L5.26309 15.714C2.95536 13.4063 1.29713 10.8157 0.510235 8.45496C-0.255395 6.15806 -0.283943 3.75099 1.24109 2.22595C2.76612 0.700921 5.17317 0.729468 7.47006 1.4951Z" fill="#9E9E9E" style="mix-blend-mode:luminosity"/>
<path fill-rule="evenodd" clip-rule="evenodd" d="M13.158 3.4029C11.1517 4.07168 8.81991 5.5351 6.68509 7.66994L6.68509 7.66995C4.55024 9.8048 3.08682 12.1366 2.41803 14.1429C1.72798 16.2131 1.96683 17.6177 2.66307 18.3139L2.66309 18.3139C3.35935 19.0102 4.764 19.2491 6.83415 18.559C8.84051 17.8902 11.1723 16.4268 13.3071 14.2919C15.442 12.1571 16.9054 9.82534 17.5742 7.81899C18.2642 5.74885 18.0254 4.3442 17.3291 3.64794C16.6328 2.95168 15.2281 2.71285 13.158 3.4029ZM12.5221 1.4951C14.819 0.729466 17.226 0.700925 18.7511 2.22595L18.7511 2.22596C20.2761 3.75099 20.2476 6.15803 19.482 8.45492C18.6951 10.8156 17.0369 13.4062 14.7291 15.7139C12.4214 18.0217 9.83077 19.6799 7.47008 20.4668C5.17319 21.2324 2.76613 21.261 1.2411 19.7359C-0.283947 18.2109 -0.255394 15.8039 0.510235 13.507C1.29713 11.1463 2.95536 8.5557 5.26309 6.24796C7.57081 3.94022 10.1614 2.28199 12.5221 1.4951Z" fill="#9E9E9E" style="mix-blend-mode:luminosity"/>
<path fill-rule="evenodd" clip-rule="evenodd" d="M9.99696 9.97535C9.44161 9.97535 8.99146 10.4255 8.99146 10.9808C8.99146 11.5362 9.44161 11.9863 9.99696 11.9863C10.5523 11.9863 11.0025 11.5362 11.0025 10.9808C11.0025 10.4255 10.5523 9.97535 9.99696 9.97535ZM6.98047 10.9808C6.98047 9.31486 8.33097 7.96436 9.99696 7.96436C11.663 7.96436 13.0135 9.31486 13.0135 10.9808C13.0135 12.6468 11.663 13.9973 9.99696 13.9973C8.33097 13.9973 6.98047 12.6468 6.98047 10.9808Z" fill="#9E9E9E" style="mix-blend-mode:luminosity"/>
</svg>
