<svg width="20" height="21" viewBox="0 0 20 21" fill="none" xmlns="http://www.w3.org/2000/svg">
<g opacity="0.1">
<path d="M1 10.9795C1 3.56799 2.5885 1.97949 10 1.97949C17.4115 1.97949 19 3.56799 19 10.9795C19 18.391 17.4115 19.9795 10 19.9795C2.5885 19.9795 1 18.391 1 10.9795Z" fill="#9E9E9E" style="mix-blend-mode:luminosity"/>
</g>
<path fill-rule="evenodd" clip-rule="evenodd" d="M10 4.97949C10.5523 4.97949 11 5.42721 11 5.97949V14.9795C11 15.5318 10.5523 15.9795 10 15.9795C9.44772 15.9795 9 15.5318 9 14.9795V5.97949C9 5.42721 9.44772 4.97949 10 4.97949Z" fill="#9E9E9E" style="mix-blend-mode:luminosity"/>
<path fill-rule="evenodd" clip-rule="evenodd" d="M14.002 6.97949C14.5542 6.97949 15.002 7.42721 15.002 7.97949V14.9795C15.002 15.5318 14.5542 15.9795 14.002 15.9795C13.4497 15.9795 13.002 15.5318 13.002 14.9795V7.97949C13.002 7.42721 13.4497 6.97949 14.002 6.97949Z" fill="#9E9E9E" style="mix-blend-mode:luminosity"/>
<path fill-rule="evenodd" clip-rule="evenodd" d="M6 8.97949C6.55228 8.97949 7 9.42721 7 9.97949V14.9795C7 15.5318 6.55228 15.9795 6 15.9795C5.44772 15.9795 5 15.5318 5 14.9795V9.97949C5 9.42721 5.44772 8.97949 6 8.97949Z" fill="#9E9E9E" style="mix-blend-mode:luminosity"/>
<path fill-rule="evenodd" clip-rule="evenodd" d="M2.34019 6.66346C2.09936 7.74709 2 9.14944 2 10.9795C2 12.8095 2.09936 14.2119 2.34019 15.2955C2.57849 16.3678 2.94181 17.0657 3.42779 17.5517C3.91378 18.0377 4.6117 18.401 5.68397 18.6393C6.7676 18.8801 8.16995 18.9795 10 18.9795C11.8301 18.9795 13.2324 18.8801 14.316 18.6393C15.3883 18.401 16.0862 18.0377 16.5722 17.5517C17.0582 17.0657 17.4215 16.3678 17.6598 15.2955C17.9006 14.2119 18 12.8095 18 10.9795C18 9.14944 17.9006 7.74709 17.6598 6.66346C17.4215 5.59119 17.0582 4.89327 16.5722 4.40729C16.0862 3.9213 15.3883 3.55799 14.316 3.31968C13.2324 3.07886 11.8301 2.97949 10 2.97949C8.16995 2.97949 6.7676 3.07886 5.68397 3.31968C4.6117 3.55799 3.91378 3.9213 3.42779 4.40729C2.94181 4.89327 2.57849 5.59119 2.34019 6.66346ZM5.25007 1.36732C6.54878 1.07869 8.1243 0.979492 10 0.979492C11.8757 0.979492 13.4512 1.07869 14.7499 1.36732C16.06 1.65847 17.1488 2.15549 17.9864 2.99307C18.824 3.83065 19.321 4.91951 19.6122 6.22957C19.9008 7.52827 20 9.10379 20 10.9795C20 12.8552 19.9008 14.4307 19.6122 15.7294C19.321 17.0395 18.824 18.1283 17.9864 18.9659C17.1488 19.8035 16.06 20.3005 14.7499 20.5917C13.4512 20.8803 11.8757 20.9795 10 20.9795C8.1243 20.9795 6.54878 20.8803 5.25007 20.5917C3.94002 20.3005 2.85116 19.8035 2.01358 18.9659C1.176 18.1283 0.678974 17.0395 0.387825 15.7294C0.0991992 14.4307 0 12.8552 0 10.9795C0 9.10379 0.0991992 7.52827 0.387825 6.22957C0.678974 4.91951 1.176 3.83065 2.01358 2.99307C2.85116 2.15549 3.94002 1.65847 5.25007 1.36732Z" fill="#9E9E9E" style="mix-blend-mode:luminosity"/>
</svg>
