<svg width="20" height="16" viewBox="0 0 20 16" fill="none" xmlns="http://www.w3.org/2000/svg">
<g opacity="0.1">
<path d="M10.9995 5.48072C10.9995 7.4136 9.43264 8.98049 7.49977 8.98049C5.5669 8.98049 4 7.4136 4 5.48072C4 3.54785 5.5669 1.98096 7.49977 1.98096C9.43264 1.98096 10.9995 3.54785 10.9995 5.48072Z" fill="#9E9E9E" style="mix-blend-mode:luminosity"/>
</g>
<path fill-rule="evenodd" clip-rule="evenodd" d="M14.4981 3.98082C14.3128 3.98082 14.1377 4.01392 13.9768 4.07359C13.459 4.26561 12.8836 4.00152 12.6916 3.48373C12.4996 2.96594 12.7636 2.39053 13.2814 2.19851C13.6617 2.05749 14.0721 1.98096 14.4981 1.98096C16.4309 1.98096 17.9978 3.54786 17.9978 5.48072C17.9978 7.41358 16.4309 8.98049 14.4981 8.98049C14.0721 8.98049 13.6617 8.90399 13.2813 8.76285C12.7635 8.57075 12.4995 7.99529 12.6916 7.47754C12.8837 6.95978 13.4592 6.69578 13.9769 6.88788C14.1377 6.94753 14.3128 6.98062 14.4981 6.98062C15.3264 6.98062 15.998 6.30908 15.998 5.48072C15.998 4.65236 15.3264 3.98082 14.4981 3.98082Z" fill="#9E9E9E" style="mix-blend-mode:luminosity"/>
<path fill-rule="evenodd" clip-rule="evenodd" d="M3.40542 13.5284C2.66631 13.8581 2.22995 14.3599 1.95805 15.2672C1.79953 15.7962 1.24218 16.0966 0.713169 15.9381C0.184161 15.7795 -0.116177 15.2222 0.0423438 14.6932C0.461767 13.2935 1.26032 12.2954 2.59072 11.702C3.83044 11.149 5.46449 10.9805 7.49976 10.9805C9.53503 10.9805 11.1691 11.149 12.4088 11.702C13.7392 12.2954 14.5377 13.2935 14.9572 14.6932C15.1157 15.2222 14.8154 15.7795 14.2864 15.9381C13.7574 16.0966 13.2 15.7962 13.0415 15.2672C12.7696 14.3599 12.3332 13.8581 11.5941 13.5284C10.7643 13.1582 9.49423 12.9803 7.49976 12.9803C5.50528 12.9803 4.23521 13.1582 3.40542 13.5284Z" fill="#9E9E9E" style="mix-blend-mode:luminosity"/>
<path fill-rule="evenodd" clip-rule="evenodd" d="M14.0008 10.9409C14.0226 10.3891 14.4876 9.95945 15.0394 9.98126C16.2841 10.0305 17.3367 10.1968 18.1688 10.6096C19.0602 11.0519 19.6295 11.7417 19.9447 12.6535C20.1252 13.1755 19.8484 13.7449 19.3264 13.9253C18.8045 14.1058 18.2351 13.829 18.0546 13.307C17.8991 12.8572 17.67 12.5946 17.2799 12.4011C16.8305 12.1781 16.1186 12.0254 14.9604 11.9796C14.4086 11.9578 13.979 11.4927 14.0008 10.9409Z" fill="#9E9E9E" style="mix-blend-mode:luminosity"/>
<path fill-rule="evenodd" clip-rule="evenodd" d="M7.4997 2.98082C6.11908 2.98082 4.99987 4.10003 4.99987 5.48066C4.99987 6.86128 6.11908 7.98049 7.4997 7.98049C8.88032 7.98049 9.99953 6.86128 9.99953 5.48066C9.99953 4.10003 8.88032 2.98082 7.4997 2.98082ZM3 5.48066C3 2.99554 5.01458 0.980957 7.4997 0.980957C9.98482 0.980957 11.9994 2.99554 11.9994 5.48066C11.9994 7.96578 9.98482 9.98036 7.4997 9.98036C5.01458 9.98036 3 7.96578 3 5.48066Z" fill="#9E9E9E" style="mix-blend-mode:luminosity"/>
</svg>
