<svg width="20" height="20" viewBox="0 0 20 20" fill="none" xmlns="http://www.w3.org/2000/svg">
<g opacity="0.1">
<path d="M15.002 12.0001C13.8974 12.0001 13.002 11.1047 13.002 10.0001C13.002 8.89543 13.8974 8 15.002 8C16.1067 8 17.0021 8.89543 17.0021 10.0001C17.0021 11.1047 16.1067 12.0001 15.002 12.0001Z" fill="#9E9E9E" style="mix-blend-mode:luminosity"/>
</g>
<g opacity="0.1">
<path d="M5.00202 19.0001C3.89741 19.0001 3.00195 18.1047 3.00195 17.0001C3.00195 15.8954 3.89741 15 5.00202 15C6.10662 15 7.00208 15.8954 7.00208 17.0001C7.00208 18.1047 6.10662 19.0001 5.00202 19.0001Z" fill="#9E9E9E" style="mix-blend-mode:luminosity"/>
</g>
<g opacity="0.1">
<path d="M5.00202 4.99964C3.89741 4.99964 3.00195 4.10418 3.00195 2.99958C3.00195 1.89497 3.89741 0.999512 5.00202 0.999512C6.10662 0.999512 7.00208 1.89497 7.00208 2.99958C7.00208 4.10418 6.10662 4.99964 5.00202 4.99964Z" fill="#9E9E9E" style="mix-blend-mode:luminosity"/>
</g>
<path fill-rule="evenodd" clip-rule="evenodd" d="M6 2.99954C6 2.44724 6.44773 1.99951 7.00003 1.99951H19.0004C19.5527 1.99951 20.0005 2.44724 20.0005 2.99954C20.0005 3.55185 19.5527 3.99958 19.0004 3.99958H7.00003C6.44773 3.99958 6 3.55185 6 2.99954Z" fill="#9E9E9E" style="mix-blend-mode:luminosity"/>
<path fill-rule="evenodd" clip-rule="evenodd" d="M0 2.99954C0 2.44724 0.44773 1.99951 1.00003 1.99951H3.0001C3.5524 1.99951 4.00013 2.44724 4.00013 2.99954C4.00013 3.55185 3.5524 3.99958 3.0001 3.99958H1.00003C0.44773 3.99958 0 3.55185 0 2.99954Z" fill="#9E9E9E" style="mix-blend-mode:luminosity"/>
<path fill-rule="evenodd" clip-rule="evenodd" d="M16 9.99954C16 9.44724 16.4477 8.99951 17 8.99951H19.0001C19.5524 8.99951 20.0001 9.44724 20.0001 9.99954C20.0001 10.5518 19.5524 10.9996 19.0001 10.9996H17C16.4477 10.9996 16 10.5518 16 9.99954Z" fill="#9E9E9E" style="mix-blend-mode:luminosity"/>
<path fill-rule="evenodd" clip-rule="evenodd" d="M0 17C0 16.4477 0.44773 16 1.00003 16H3.0001C3.5524 16 4.00013 16.4477 4.00013 17C4.00013 17.5523 3.5524 18.0001 3.0001 18.0001H1.00003C0.44773 18.0001 0 17.5523 0 17Z" fill="#9E9E9E" style="mix-blend-mode:luminosity"/>
<path fill-rule="evenodd" clip-rule="evenodd" d="M0 9.99954C0 9.44724 0.44773 8.99951 1.00003 8.99951H13.0004C13.5527 8.99951 14.0005 9.44724 14.0005 9.99954C14.0005 10.5518 13.5527 10.9996 13.0004 10.9996H1.00003C0.44773 10.9996 0 10.5518 0 9.99954Z" fill="#9E9E9E" style="mix-blend-mode:luminosity"/>
<path fill-rule="evenodd" clip-rule="evenodd" d="M6 17C6 16.4477 6.44773 16 7.00003 16H19.0004C19.5527 16 20.0005 16.4477 20.0005 17C20.0005 17.5523 19.5527 18.0001 19.0004 18.0001H7.00003C6.44773 18.0001 6 17.5523 6 17Z" fill="#9E9E9E" style="mix-blend-mode:luminosity"/>
<path fill-rule="evenodd" clip-rule="evenodd" d="M14.9981 8.99958C14.4458 8.99958 13.9981 9.44728 13.9981 9.99961C13.9981 10.5519 14.4458 10.9996 14.9981 10.9996C15.5505 10.9996 15.9982 10.5519 15.9982 9.99961C15.9982 9.44728 15.5505 8.99958 14.9981 8.99958ZM11.998 9.99961C11.998 8.34267 13.3412 6.99951 14.9981 6.99951C16.6551 6.99951 17.9982 8.34267 17.9982 9.99961C17.9982 11.6565 16.6551 12.9997 14.9981 12.9997C13.3412 12.9997 11.998 11.6565 11.998 9.99961Z" fill="#9E9E9E" style="mix-blend-mode:luminosity"/>
<path fill-rule="evenodd" clip-rule="evenodd" d="M4.99814 15.9996C4.44583 15.9996 3.99811 16.4473 3.99811 16.9996C3.99811 17.5519 4.44583 17.9996 4.99814 17.9996C5.55046 17.9996 5.99818 17.5519 5.99818 16.9996C5.99818 16.4473 5.55046 15.9996 4.99814 15.9996ZM1.99805 16.9996C1.99805 15.3427 3.34125 13.9995 4.99814 13.9995C6.65504 13.9995 7.99824 15.3427 7.99824 16.9996C7.99824 18.6566 6.65504 19.9997 4.99814 19.9997C3.34125 19.9997 1.99805 18.6566 1.99805 16.9996Z" fill="#9E9E9E" style="mix-blend-mode:luminosity"/>
<path fill-rule="evenodd" clip-rule="evenodd" d="M4.99814 1.99958C4.44584 1.99958 3.99811 2.44731 3.99811 2.99961C3.99811 3.55191 4.44584 3.99964 4.99814 3.99964C5.55045 3.99964 5.99818 3.55191 5.99818 2.99961C5.99818 2.44731 5.55045 1.99958 4.99814 1.99958ZM1.99805 2.99961C1.99805 1.3427 3.34124 -0.000488281 4.99814 -0.000488281C6.65505 -0.000488281 7.99824 1.3427 7.99824 2.99961C7.99824 4.65652 6.65505 5.99971 4.99814 5.99971C3.34124 5.99971 1.99805 4.65652 1.99805 2.99961Z" fill="#9E9E9E" style="mix-blend-mode:luminosity"/>
</svg>
