<svg width="20" height="20" viewBox="0 0 20 20" fill="none" xmlns="http://www.w3.org/2000/svg">
<g opacity="0.1">
<path d="M6.976 1C2.05476 1 1 2.05476 1 6.976V13.024C1 17.9452 2.05476 19 6.976 19H7V7H19V6.976C19 2.05476 17.9452 1 13.024 1H6.976Z" fill="#9E9E9E" style="mix-blend-mode:luminosity"/>
</g>
<path fill-rule="evenodd" clip-rule="evenodd" d="M2.21788 4.18305C2.066 4.86645 2 5.76851 2 6.976V13.024C2 14.2315 2.066 15.1335 2.21788 15.8169C2.36724 16.489 2.58602 16.8867 2.84964 17.1503C3.11327 17.414 3.51101 17.6328 4.18305 17.7821C4.86645 17.934 5.76852 18 6.976 18H13.024C14.2315 18 15.1335 17.934 15.8169 17.7821C16.489 17.6328 16.8867 17.414 17.1503 17.1503C17.414 16.8867 17.6328 16.489 17.7821 15.8169C17.934 15.1335 18 14.2315 18 13.024V6.976C18 5.76852 17.934 4.86645 17.7821 4.18305C17.6328 3.51101 17.414 3.11327 17.1503 2.84964C16.8867 2.58602 16.489 2.36724 15.8169 2.21788C15.1335 2.066 14.2315 2 13.024 2H6.976C5.76851 2 4.86645 2.066 4.18305 2.21788C3.51101 2.36724 3.11327 2.58602 2.84964 2.84964C2.58602 3.11327 2.36724 3.51101 2.21788 4.18305ZM3.74915 0.265518C4.64762 0.0658404 5.72287 0 6.976 0H13.024C14.2771 0 15.3524 0.0658404 16.2508 0.265518C17.1607 0.467718 17.9493 0.820209 18.5646 1.43543C19.1798 2.05064 19.5323 2.83932 19.7345 3.74915C19.9342 4.64762 20 5.72286 20 6.976V13.024C20 14.2771 19.9342 15.3524 19.7345 16.2508C19.5323 17.1607 19.1798 17.9493 18.5646 18.5646C17.9493 19.1798 17.1607 19.5323 16.2508 19.7345C15.3524 19.9342 14.2771 20 13.024 20H6.976C5.72286 20 4.64762 19.9342 3.74915 19.7345C2.83932 19.5323 2.05064 19.1798 1.43543 18.5646C0.820209 17.9493 0.467718 17.1607 0.265518 16.2508C0.0658404 15.3524 0 14.2771 0 13.024V6.976C0 5.72287 0.0658404 4.64762 0.265518 3.74915C0.467718 2.83933 0.820209 2.05065 1.43543 1.43543C2.05065 0.820209 2.83933 0.467718 3.74915 0.265518Z" fill="#9E9E9E" style="mix-blend-mode:luminosity"/>
<path fill-rule="evenodd" clip-rule="evenodd" d="M0 7C0 6.44772 0.447715 6 1 6H19C19.5523 6 20 6.44772 20 7C20 7.55228 19.5523 8 19 8H1C0.447715 8 0 7.55228 0 7Z" fill="#9E9E9E" style="mix-blend-mode:luminosity"/>
<path fill-rule="evenodd" clip-rule="evenodd" d="M7 6C7.55228 6 8 6.44772 8 7V19C8 19.5523 7.55228 20 7 20C6.44772 20 6 19.5523 6 19V7C6 6.44772 6.44772 6 7 6Z" fill="#9E9E9E" style="mix-blend-mode:luminosity"/>
</svg>
