<svg width="31" height="27" viewBox="0 0 31 27" fill="none" xmlns="http://www.w3.org/2000/svg">
<path fill-rule="evenodd" clip-rule="evenodd" d="M0 8.58091C0 7.99877 0.471915 7.52686 1.05405 7.52686H18.6216C19.2037 7.52686 19.6756 7.99877 19.6756 8.58091C19.6756 9.16305 19.2037 9.63496 18.6216 9.63496H1.05405C0.471915 9.63496 0 9.16305 0 8.58091Z" fill="#19B2BB"/>
<path opacity="0.4" fill-rule="evenodd" clip-rule="evenodd" d="M5.62109 19.8246C5.62109 19.2424 6.09301 18.7705 6.67515 18.7705H9.48595C10.0681 18.7705 10.54 19.2424 10.54 19.8246C10.54 20.4067 10.0681 20.8786 9.48595 20.8786H6.67515C6.09301 20.8786 5.62109 20.4067 5.62109 19.8246Z" fill="#19B2BB"/>
<path opacity="0.4" fill-rule="evenodd" clip-rule="evenodd" d="M11.9453 19.8246C11.9453 19.2424 12.4172 18.7705 12.9994 18.7705H18.621C19.2031 18.7705 19.675 19.2424 19.675 19.8246C19.675 20.4067 19.2031 20.8786 18.621 20.8786H12.9994C12.4172 20.8786 11.9453 20.4067 11.9453 19.8246Z" fill="#19B2BB"/>
<path fill-rule="evenodd" clip-rule="evenodd" d="M3.0442 3.53858C2.44682 4.12924 2.1081 5.25191 2.1081 7.72377V19.2762C2.1081 21.748 2.44682 22.8707 3.0442 23.4614C3.64574 24.0561 4.79103 24.3919 7.29404 24.3919H22.9221C25.4251 24.3919 26.5704 24.0561 27.172 23.4614C27.7694 22.8707 28.1081 21.748 28.1081 19.2762V16.3529C28.1081 15.7708 28.58 15.2989 29.1621 15.2989C29.7443 15.2989 30.2162 15.7708 30.2162 16.3529V19.2762C30.2162 21.7373 29.9295 23.6995 28.6542 24.9604C27.383 26.2173 25.4083 26.5 22.9221 26.5H7.29404C4.80788 26.5 2.83317 26.2173 1.56201 24.9604C0.286692 23.6995 0 21.7373 0 19.2762V7.72377C0 5.26267 0.286692 3.30048 1.56201 2.03952C2.83317 0.782662 4.80788 0.5 7.29404 0.5H18.6216C19.2037 0.5 19.6756 0.971915 19.6756 1.55405C19.6756 2.13619 19.2037 2.6081 18.6216 2.6081H7.29404C4.79103 2.6081 3.64574 2.94382 3.0442 3.53858Z" fill="#19B2BB"/>
<path fill-rule="evenodd" clip-rule="evenodd" d="M25.9476 0.580266C26.3414 0.417119 26.7948 0.507299 27.0963 0.808756L29.9071 3.61956C30.3187 4.0312 30.3187 4.69858 29.9071 5.11022C29.4954 5.52185 28.828 5.52185 28.4164 5.11022L27.405 4.09879V9.9865C27.405 10.5686 26.9331 11.0406 26.3509 11.0406C25.7688 11.0406 25.2969 10.5686 25.2969 9.9865V1.55408C25.2969 1.12776 25.5537 0.743413 25.9476 0.580266Z" fill="#19B2BB"/>
<path fill-rule="evenodd" clip-rule="evenodd" d="M27.0965 0.808725C27.5081 1.22036 27.5081 1.88775 27.0965 2.29938L24.2857 5.11019C23.8741 5.52182 23.2067 5.52182 22.7951 5.11019C22.3834 4.69855 22.3834 4.03116 22.7951 3.61953L25.6059 0.808725C26.0175 0.397092 26.6849 0.397092 27.0965 0.808725Z" fill="#19B2BB"/>
</svg>
