<svg width="40" height="40" viewBox="0 0 40 40" fill="none" xmlns="http://www.w3.org/2000/svg">
<rect x="0.5" y="0.5" width="39" height="39" rx="19.5" fill="#F7F7F7"/>
<rect x="0.5" y="0.5" width="39" height="39" rx="19.5" stroke="#EAEAEA"/>
<g clip-path="url(#clip0_613_9345)">
<path d="M27.5131 18.2794C26.4791 16.5954 24.1271 13.77 19.9991 13.77C15.8711 13.77 13.5191 16.5954 12.4851 18.2794C12.1654 18.7964 11.9961 19.3922 11.9961 20C11.9961 20.6079 12.1654 21.2037 12.4851 21.7207C13.5191 23.4047 15.8711 26.23 19.9991 26.23C24.1271 26.23 26.4791 23.4047 27.5131 21.7207C27.8327 21.2037 28.002 20.6079 28.002 20C28.002 19.3922 27.8327 18.7964 27.5131 18.2794ZM26.3764 21.0227C25.4884 22.4667 23.4784 24.8967 19.9991 24.8967C16.5197 24.8967 14.5097 22.4667 13.6217 21.0227C13.4318 20.7154 13.3312 20.3613 13.3312 20C13.3312 19.6388 13.4318 19.2847 13.6217 18.9774C14.5097 17.5334 16.5197 15.1034 19.9991 15.1034C23.4784 15.1034 25.4884 17.5307 26.3764 18.9774C26.5663 19.2847 26.6669 19.6388 26.6669 20C26.6669 20.3613 26.5663 20.7154 26.3764 21.0227Z" fill="#9E9E9E" style="mix-blend-mode:luminosity"/>
<path d="M19.9994 16.6665C19.3401 16.6665 18.6956 16.862 18.1474 17.2283C17.5993 17.5945 17.172 18.1151 16.9198 18.7242C16.6675 19.3333 16.6014 20.0035 16.7301 20.6501C16.8587 21.2967 17.1762 21.8907 17.6423 22.3569C18.1085 22.823 18.7024 23.1405 19.349 23.2691C19.9957 23.3977 20.6659 23.3317 21.275 23.0794C21.884 22.8271 22.4046 22.3999 22.7709 21.8517C23.1372 21.3036 23.3327 20.6591 23.3327 19.9998C23.3316 19.1161 22.9801 18.2689 22.3552 17.644C21.7303 17.0191 20.8831 16.6676 19.9994 16.6665ZM19.9994 21.9998C19.6038 21.9998 19.2171 21.8825 18.8882 21.6628C18.5593 21.443 18.303 21.1307 18.1516 20.7652C18.0002 20.3998 17.9606 19.9976 18.0378 19.6097C18.115 19.2217 18.3054 18.8653 18.5851 18.5856C18.8648 18.3059 19.2212 18.1154 19.6092 18.0383C19.9971 17.9611 20.3993 18.0007 20.7647 18.1521C21.1302 18.3035 21.4425 18.5598 21.6623 18.8887C21.8821 19.2176 21.9994 19.6043 21.9994 19.9998C21.9994 20.5303 21.7886 21.039 21.4136 21.4141C21.0385 21.7891 20.5298 21.9998 19.9994 21.9998Z" fill="#9E9E9E" style="mix-blend-mode:luminosity"/>
</g>
<defs>
<clipPath id="clip0_613_9345">
<rect width="16" height="16" fill="white" transform="translate(12 12)"/>
</clipPath>
</defs>
</svg>
