<svg width="41" height="40" viewBox="0 0 41 40" fill="none" xmlns="http://www.w3.org/2000/svg">
<rect x="0.875" width="40" height="40" rx="20" fill="#F6F9EC"/>
<path fill-rule="evenodd" clip-rule="evenodd" d="M14.8817 24.4378C14.6612 24.6582 14.3622 24.7821 14.0505 24.7821C13.7387 24.7821 13.4397 24.6582 13.2193 24.4378C12.9988 24.2174 12.875 23.9184 12.875 23.6066C12.875 23.2949 12.9988 22.9959 13.2193 22.7754L17.135 18.8609L17.1432 18.8527C17.4631 18.5393 17.8931 18.3638 18.3409 18.3638C18.7888 18.3638 19.2187 18.5393 19.5387 18.8527L19.5469 18.8609L21.5453 20.8593L24.3026 17.9434L23.0808 16.7215C22.9577 16.5983 22.8739 16.4414 22.84 16.2706C22.806 16.0998 22.8235 15.9227 22.8901 15.7618C22.9567 15.6009 23.0695 15.4633 23.2143 15.3665C23.3591 15.2697 23.5293 15.2179 23.7034 15.2178H27.9939C28.2276 15.2178 28.4517 15.3106 28.6169 15.4758C28.7822 15.6411 28.875 15.8652 28.875 16.0989V20.3893C28.8748 20.5635 28.8231 20.7337 28.7263 20.8785C28.6294 21.0232 28.4919 21.136 28.331 21.2027C28.1701 21.2693 27.993 21.2867 27.8222 21.2528C27.6514 21.2189 27.4944 21.1351 27.3712 21.012L25.965 19.6046L22.7882 22.9657C22.6313 23.1278 22.4438 23.2571 22.2367 23.3465C22.0295 23.4358 21.8068 23.4833 21.5812 23.4862C21.3557 23.4892 21.1318 23.4475 20.9224 23.3636C20.713 23.2798 20.5222 23.1553 20.361 22.9975L20.3528 22.9892L18.3403 20.9779L14.8817 24.4378Z" fill="#81A141"/>
</svg>
