<svg width="65" height="66" viewBox="0 0 65 66" fill="none" xmlns="http://www.w3.org/2000/svg">
<path opacity="0.1" fill-rule="evenodd" clip-rule="evenodd" d="M0 33V45.5C0 56.5457 8.9543 65.5 20 65.5H32.5H45C56.0457 65.5 65 56.5457 65 45.5V33V20.5C65 9.45431 56.0457 0.5 45 0.5H32.5H20C8.95431 0.5 0 9.4543 0 20.5V33Z" fill="#19B2BB"/>
<path fill-rule="evenodd" clip-rule="evenodd" d="M17 27.5812C17 26.999 17.4719 26.5271 18.0541 26.5271H35.6216C36.2037 26.5271 36.6756 26.999 36.6756 27.5812C36.6756 28.1633 36.2037 28.6352 35.6216 28.6352H18.0541C17.4719 28.6352 17 28.1633 17 27.5812Z" fill="#19B2BB"/>
<path opacity="0.4" fill-rule="evenodd" clip-rule="evenodd" d="M22.6211 38.8243C22.6211 38.2422 23.093 37.7703 23.6751 37.7703H26.486C27.0681 37.7703 27.54 38.2422 27.54 38.8243C27.54 39.4065 27.0681 39.8784 26.486 39.8784H23.6751C23.093 39.8784 22.6211 39.4065 22.6211 38.8243Z" fill="#19B2BB"/>
<path opacity="0.4" fill-rule="evenodd" clip-rule="evenodd" d="M28.9463 38.8243C28.9463 38.2422 29.4182 37.7703 30.0003 37.7703H35.622C36.2041 37.7703 36.676 38.2422 36.676 38.8243C36.676 39.4065 36.2041 39.8784 35.622 39.8784H30.0003C29.4182 39.8784 28.9463 39.4065 28.9463 38.8243Z" fill="#19B2BB"/>
<path fill-rule="evenodd" clip-rule="evenodd" d="M20.0442 22.5386C19.4468 23.1292 19.1081 24.2519 19.1081 26.7238V38.2762C19.1081 40.748 19.4468 41.8707 20.0442 42.4614C20.6457 43.0561 21.791 43.3919 24.294 43.3919H39.9221C42.4251 43.3919 43.5704 43.0561 44.172 42.4614C44.7694 41.8707 45.1081 40.748 45.1081 38.2762V35.3529C45.1081 34.7708 45.58 34.2989 46.1621 34.2989C46.7443 34.2989 47.2162 34.7708 47.2162 35.3529V38.2762C47.2162 40.7373 46.9295 42.6995 45.6542 43.9604C44.383 45.2173 42.4083 45.5 39.9221 45.5H24.294C21.8079 45.5 19.8332 45.2173 18.562 43.9604C17.2867 42.6995 17 40.7373 17 38.2762V26.7238C17 24.2627 17.2867 22.3005 18.562 21.0395C19.8332 19.7827 21.8079 19.5 24.294 19.5H35.6216C36.2037 19.5 36.6756 19.9719 36.6756 20.5541C36.6756 21.1362 36.2037 21.6081 35.6216 21.6081H24.294C21.791 21.6081 20.6457 21.9438 20.0442 22.5386Z" fill="#19B2BB"/>
<path fill-rule="evenodd" clip-rule="evenodd" d="M42.9476 19.5803C43.3414 19.4171 43.7948 19.5073 44.0963 19.8088L46.9071 22.6196C47.3187 23.0312 47.3187 23.6986 46.9071 24.1102C46.4954 24.5219 45.828 24.5219 45.4164 24.1102L44.405 23.0988V28.9865C44.405 29.5686 43.9331 30.0406 43.3509 30.0406C42.7688 30.0406 42.2969 29.5686 42.2969 28.9865V20.5541C42.2969 20.1278 42.5537 19.7434 42.9476 19.5803Z" fill="#19B2BB"/>
<path fill-rule="evenodd" clip-rule="evenodd" d="M44.0965 19.8087C44.5081 20.2204 44.5081 20.8877 44.0965 21.2994L41.2857 24.1102C40.8741 24.5218 40.2067 24.5218 39.7951 24.1102C39.3834 23.6986 39.3834 23.0312 39.7951 22.6195L42.6059 19.8087C43.0175 19.3971 43.6849 19.3971 44.0965 19.8087Z" fill="#19B2BB"/>
</svg>
