<svg width="65" height="66" viewBox="0 0 65 66" fill="none" xmlns="http://www.w3.org/2000/svg">
<path opacity="0.1" d="M0 20.5C0 9.4543 8.95431 0.5 20 0.5H45C56.0457 0.5 65 9.45431 65 20.5V45.5C65 56.5457 56.0457 65.5 45 65.5H20C8.9543 65.5 0 56.5457 0 45.5V20.5Z" fill="#7B61FF"/>
<path fill-rule="evenodd" clip-rule="evenodd" d="M35.2058 20.064C35.2066 20.0645 35.2074 20.0649 35.2082 20.0654L41.9239 23.9482C41.9422 23.9589 41.9603 23.9701 41.9779 23.982L42.0075 24.002C42.5932 24.3974 43.0757 24.723 43.4469 25.0171C43.8304 25.321 44.1609 25.6406 44.3967 26.0485C44.6378 26.4655 44.737 26.8999 44.7826 27.3631C44.8252 27.7966 44.8252 28.3183 44.8251 28.9269V36.0731C44.8252 36.6817 44.8252 37.2034 44.7826 37.6369C44.737 38.1001 44.6378 38.5345 44.3967 38.9515C44.1609 39.3594 43.8304 39.679 43.4469 39.9829C43.0757 40.277 42.5932 40.6026 42.0075 40.998L41.9779 41.018C41.9603 41.0299 41.9422 41.0411 41.9239 41.0518L35.2082 44.9346C35.2075 44.935 35.2068 44.9355 35.206 44.9359C34.5307 45.3306 33.6983 45.5 32.9172 45.5C32.1346 45.5 31.3006 45.33 30.6211 44.9371L23.9013 41.0518C23.8829 41.0411 23.8649 41.0299 23.8473 41.018L23.8177 40.998C23.232 40.6027 22.7493 40.2769 22.378 39.9825C21.9942 39.6782 21.6636 39.358 21.4279 38.949C21.1871 38.5312 21.088 38.0958 21.0425 37.6313C21 37.1964 21 36.6725 21 36.0608V28.9269C21 28.3183 21 27.7966 21.0426 27.3631C21.0881 26.8999 21.1874 26.4655 21.4285 26.0485C21.6642 25.6406 21.9947 25.321 22.3782 25.0171C22.7494 24.723 23.2319 24.3974 23.8177 24.002L23.8473 23.982C23.8649 23.9701 23.8829 23.9589 23.9013 23.9482L30.6211 20.0629C30.6211 20.0629 30.6212 20.0629 30.6212 20.0629C31.3006 19.67 32.1347 19.5 32.9172 19.5C33.6982 19.5 34.5305 19.6694 35.2058 20.064ZM32.9172 21.3327C32.371 21.3327 31.8733 21.4559 31.5386 21.6495L31.5385 21.6495L24.8462 25.5189C24.2379 25.9295 23.8217 26.2117 23.5163 26.4537C23.2125 26.6943 23.0848 26.8451 23.0152 26.9656C22.9508 27.077 22.8973 27.2291 22.8665 27.5425C22.8337 27.8757 22.8327 28.3067 22.8327 28.969V36.0188C22.8327 36.6841 22.8337 37.1176 22.8665 37.4528C22.8974 37.7684 22.9511 37.9217 23.0157 38.0338C23.0855 38.1548 23.2131 38.3058 23.5165 38.5463C23.8218 38.7884 24.2379 39.0705 24.8462 39.4811L31.5385 43.3505L31.5386 43.3505C31.8733 43.5441 32.371 43.6673 32.9172 43.6673C33.4639 43.6673 33.9562 43.5439 34.2824 43.353C34.2838 43.3521 34.2852 43.3513 34.2866 43.3505L40.9789 39.4811C41.5872 39.0705 42.0035 38.7883 42.3089 38.5463C42.6126 38.3057 42.7403 38.1549 42.81 38.0344C42.8744 37.923 42.9278 37.7709 42.9587 37.4575C42.9914 37.1243 42.9924 36.6933 42.9924 36.031V28.969C42.9924 28.3067 42.9914 27.8757 42.9587 27.5425C42.9278 27.2291 42.8744 27.077 42.81 26.9656C42.7403 26.8451 42.6126 26.6943 42.3089 26.4537C42.0035 26.2117 41.5872 25.9295 40.9789 25.5189L34.2866 21.6495C34.2852 21.6487 34.2838 21.6479 34.2824 21.647C33.9562 21.4561 33.4639 21.3327 32.9172 21.3327Z" fill="#846EEC"/>
<path opacity="0.45" fill-rule="evenodd" clip-rule="evenodd" d="M28.3311 32.5002C28.3311 29.9697 30.3823 27.9185 32.9128 27.9185C35.4433 27.9185 37.4946 29.9697 37.4946 32.5002C37.4946 35.0307 35.4433 37.082 32.9128 37.082C30.3823 37.082 28.3311 35.0307 28.3311 32.5002ZM32.9128 29.7512C31.3945 29.7512 30.1638 30.9819 30.1638 32.5002C30.1638 34.0185 31.3945 35.2493 32.9128 35.2493C34.4311 35.2493 35.6619 34.0185 35.6619 32.5002C35.6619 30.9819 34.4311 29.7512 32.9128 29.7512Z" fill="#846EEC"/>
</svg>
