<svg width="65" height="66" viewBox="0 0 65 66" fill="none" xmlns="http://www.w3.org/2000/svg">
<path opacity="0.1" d="M0 20.5C0 9.4543 8.95431 0.5 20 0.5H45C56.0457 0.5 65 9.45431 65 20.5V45.5C65 56.5457 56.0457 65.5 45 65.5H20C8.9543 65.5 0 56.5457 0 45.5V20.5Z" fill="#1C5AA5"/>
<path opacity="0.2" d="M32.0002 24.9333C22.6669 24.9333 18.9336 33.3333 18.9336 33.3333C18.9336 33.3333 22.6669 41.7333 32.0002 41.7333C41.3336 41.7333 45.0669 33.3333 45.0669 33.3333C45.0669 33.3333 41.3336 24.9333 32.0002 24.9333ZM32.0002 38C31.0773 38 30.175 37.7263 29.4076 37.2135C28.6402 36.7008 28.042 35.9719 27.6888 35.1192C27.3356 34.2665 27.2432 33.3282 27.4233 32.4229C27.6033 31.5177 28.0478 30.6862 28.7004 30.0335C29.3531 29.3809 30.1846 28.9364 31.0898 28.7563C31.9951 28.5763 32.9334 28.6687 33.7861 29.0219C34.6388 29.3751 35.3677 29.9733 35.8804 30.7407C36.3932 31.5081 36.6669 32.4104 36.6669 33.3333C36.6669 34.571 36.1752 35.758 35.3001 36.6332C34.4249 37.5083 33.2379 38 32.0002 38Z" fill="#8FBAEA"/>
<path d="M45.9195 32.9553C45.8786 32.8632 44.8905 30.671 42.6936 28.4742C39.7665 25.547 36.0693 24 32 24C27.9306 24 24.2335 25.547 21.3063 28.4742C19.1095 30.671 18.1167 32.8667 18.0805 32.9553C18.0274 33.0747 18 33.2039 18 33.3345C18 33.4651 18.0274 33.5943 18.0805 33.7137C18.1213 33.8058 19.1095 35.9968 21.3063 38.1937C24.2335 41.1196 27.9306 42.6666 32 42.6666C36.0693 42.6666 39.7665 41.1196 42.6936 38.1937C44.8905 35.9968 45.8786 33.8058 45.9195 33.7137C45.9725 33.5943 46 33.4651 46 33.3345C46 33.2039 45.9725 33.0747 45.9195 32.9553ZM32 40.8C28.409 40.8 25.2718 39.4945 22.6748 36.9208C21.6092 35.8611 20.7027 34.6528 19.9833 33.3333C20.7025 32.0138 21.6091 30.8054 22.6748 29.7458C25.2718 27.1722 28.409 25.8667 32 25.8667C35.591 25.8667 38.7281 27.1722 41.3251 29.7458C42.3928 30.8051 43.3013 32.0135 44.0225 33.3333C43.1813 34.9037 39.5168 40.8 32 40.8ZM32 27.7333C30.8924 27.7333 29.8097 28.0618 28.8888 28.6771C27.9679 29.2924 27.2501 30.167 26.8263 31.1903C26.4024 32.2136 26.2915 33.3395 26.5076 34.4258C26.7237 35.5121 27.257 36.5099 28.0402 37.2931C28.8234 38.0763 29.8212 38.6096 30.9075 38.8257C31.9938 39.0418 33.1197 38.9309 34.143 38.507C35.1663 38.0832 36.0409 37.3654 36.6562 36.4445C37.2715 35.5236 37.6 34.4409 37.6 33.3333C37.5984 31.8486 37.0079 30.4251 35.9581 29.3752C34.9082 28.3254 33.4847 27.7349 32 27.7333ZM32 37.0667C31.2616 37.0667 30.5398 36.8477 29.9258 36.4375C29.3119 36.0273 28.8334 35.4442 28.5508 34.762C28.2683 34.0798 28.1943 33.3292 28.3384 32.605C28.4824 31.8808 28.838 31.2156 29.3601 30.6935C29.8822 30.1713 30.5474 29.8158 31.2716 29.6717C31.9958 29.5277 32.7465 29.6016 33.4287 29.8842C34.1108 30.1667 34.6939 30.6453 35.1041 31.2592C35.5143 31.8731 35.7333 32.5949 35.7333 33.3333C35.7333 34.3235 35.34 35.2731 34.6398 35.9732C33.9397 36.6733 32.9901 37.0667 32 37.0667Z" fill="#1C5AA5"/>
</svg>
