<svg width="16" height="18" viewBox="0 0 16 18" fill="none" xmlns="http://www.w3.org/2000/svg">
<rect x="16" y="17.0654" width="16" height="16.1308" rx="8" transform="rotate(-180 16 17.0654)" fill="#FF5B5B" fill-opacity="0.15"/>
<g clip-path="url(#clip0_414_11286)">
<path d="M6.0197 9.80994L7.66676 11.4705C7.75501 11.5594 7.87468 11.6094 7.99946 11.6094C8.12425 11.6094 8.24392 11.5594 8.33217 11.4705L9.97923 9.80994C10.065 9.72046 10.1124 9.60062 10.1113 9.47623C10.1102 9.35183 10.0607 9.23284 9.9735 9.14487C9.88625 9.05691 9.76822 9.00701 9.64483 9.00593C9.52144 9.00485 9.40257 9.05267 9.31382 9.13909L8.47005 9.98976L8.47005 6.86513C8.47005 6.7393 8.42047 6.61862 8.33222 6.52965C8.24397 6.44068 8.12427 6.39069 7.99946 6.39069C7.87466 6.39069 7.75496 6.44068 7.66671 6.52965C7.57846 6.61862 7.52888 6.7393 7.52888 6.86513L7.52888 9.98976L6.68511 9.13909C6.59636 9.05267 6.47748 9.00485 6.3541 9.00593C6.23071 9.00701 6.11268 9.05691 6.02543 9.14487C5.93818 9.23284 5.88869 9.35183 5.88762 9.47623C5.88654 9.60062 5.93398 9.72046 6.0197 9.80994Z" fill="#FF5B5B"/>
</g>
<defs>
<clipPath id="clip0_414_11286">
<rect width="5.64706" height="5.69322" fill="white" transform="translate(10.8232 11.8467) rotate(-180)"/>
</clipPath>
</defs>
</svg>
