<svg width="16" height="18" viewBox="0 0 16 18" fill="none" xmlns="http://www.w3.org/2000/svg">
<rect x="16" y="17.0654" width="16" height="16.1308" rx="8" transform="rotate(-180 16 17.0654)" fill="#2ED6A3" fill-opacity="0.15"/>
<g clip-path="url(#clip0_414_11271)">
<path d="M6.0197 8.86097C6.10795 8.94992 6.22762 8.99988 6.3524 8.99988C6.47719 8.99988 6.59686 8.94992 6.68511 8.86097L7.52888 8.01031L7.52888 11.1349C7.52888 11.2608 7.57845 11.3814 7.66671 11.4704C7.75496 11.5594 7.87466 11.6094 7.99946 11.6094C8.12427 11.6094 8.24397 11.5594 8.33222 11.4704C8.42047 11.3814 8.47005 11.2608 8.47005 11.1349L8.47005 8.01031L9.31382 8.86097C9.40257 8.94739 9.52144 8.99522 9.64483 8.99413C9.76822 8.99305 9.88625 8.94316 9.9735 8.85519C10.0607 8.76723 10.1102 8.64824 10.1113 8.52384C10.1124 8.39944 10.065 8.2796 9.97923 8.19012L8.33217 6.5296C8.24392 6.44066 8.12425 6.39069 7.99946 6.39069C7.87468 6.39069 7.75501 6.44066 7.66676 6.5296L6.0197 8.19012C5.93148 8.27909 5.88192 8.39974 5.88192 8.52555C5.88192 8.65135 5.93148 8.772 6.0197 8.86097Z" fill="#00A389"/>
</g>
<defs>
<clipPath id="clip0_414_11271">
<rect width="5.64706" height="5.69322" fill="white" transform="translate(10.8232 11.8467) rotate(-180)"/>
</clipPath>
</defs>
</svg>
