<svg width="65" height="66" viewBox="0 0 65 66" fill="none" xmlns="http://www.w3.org/2000/svg">
<path opacity="0.1" d="M0 20.5C0 9.4543 8.95431 0.5 20 0.5H45C56.0457 0.5 65 9.45431 65 20.5V45.5C65 56.5457 56.0457 65.5 45 65.5H20C8.9543 65.5 0 56.5457 0 45.5V20.5Z" fill="#309972"/>
<path opacity="0.2" d="M39.312 27.2742C39.312 28.7283 38.8808 30.1498 38.0729 31.3589C37.265 32.568 36.1168 33.5103 34.7733 34.0668C33.4299 34.6233 31.9516 34.7689 30.5254 34.4852C29.0992 34.2015 27.7891 33.5013 26.7609 32.473C25.7326 31.4448 25.0324 30.1347 24.7487 28.7085C24.465 27.2823 24.6106 25.804 25.1671 24.4606C25.7236 23.1171 26.6659 21.9688 27.875 21.161C29.0841 20.3531 30.5056 19.9219 31.9597 19.9219C33.9097 19.9219 35.7798 20.6965 37.1586 22.0753C38.5374 23.4541 39.312 25.3242 39.312 27.2742Z" fill="#BAD086"/>
<path d="M43.7824 40.6005C42.0328 37.5757 39.3366 35.4068 36.19 34.3786C37.7465 33.4521 38.9557 32.0402 39.6321 30.3599C40.3084 28.6796 40.4145 26.8237 39.934 25.0772C39.4535 23.3308 38.413 21.7903 36.9723 20.6925C35.5316 19.5946 33.7704 19 31.959 19C30.1477 19 28.3864 19.5946 26.9457 20.6925C25.505 21.7903 24.4645 23.3308 23.984 25.0772C23.5035 26.8237 23.6096 28.6796 24.286 30.3599C24.9623 32.0402 26.1716 33.4521 27.728 34.3786C24.5814 35.4056 21.8852 37.5746 20.1356 40.6005C20.0714 40.7051 20.0289 40.8215 20.0104 40.9429C19.992 41.0642 19.998 41.188 20.0282 41.3069C20.0584 41.4259 20.1121 41.5376 20.1861 41.6355C20.2602 41.7333 20.3531 41.8154 20.4594 41.8768C20.5656 41.9382 20.6831 41.9776 20.8049 41.9929C20.9267 42.0081 21.0503 41.9988 21.1684 41.9655C21.2865 41.9322 21.3968 41.8756 21.4927 41.799C21.5885 41.7224 21.6681 41.6274 21.7267 41.5195C23.891 37.779 27.7165 35.5458 31.959 35.5458C36.2015 35.5458 40.027 37.779 42.1913 41.5195C42.2499 41.6274 42.3295 41.7224 42.4254 41.799C42.5212 41.8756 42.6315 41.9322 42.7496 41.9655C42.8677 41.9988 42.9913 42.0081 43.1131 41.9929C43.2349 41.9776 43.3524 41.9382 43.4587 41.8768C43.5649 41.8154 43.6578 41.7333 43.7319 41.6355C43.8059 41.5376 43.8596 41.4259 43.8898 41.3069C43.92 41.188 43.926 41.0642 43.9076 40.9429C43.8891 40.8215 43.8466 40.7051 43.7824 40.6005ZM25.5258 27.2745C25.5258 26.0021 25.9031 24.7583 26.6099 23.7003C27.3168 22.6424 28.3216 21.8178 29.4971 21.3309C30.6726 20.844 31.9661 20.7166 33.2141 20.9648C34.462 21.213 35.6083 21.8257 36.508 22.7255C37.4077 23.6252 38.0204 24.7715 38.2687 26.0194C38.5169 27.2673 38.3895 28.5608 37.9026 29.7364C37.4156 30.9119 36.5911 31.9166 35.5331 32.6235C34.4752 33.3304 33.2314 33.7077 31.959 33.7077C30.2534 33.7059 28.6181 33.0275 27.412 31.8214C26.2059 30.6154 25.5276 28.9801 25.5258 27.2745Z" fill="#81A141"/>
</svg>
