<svg width="65" height="66" viewBox="0 0 65 66" fill="none" xmlns="http://www.w3.org/2000/svg">
<path opacity="0.1" fill-rule="evenodd" clip-rule="evenodd" d="M0 33V45.5C0 56.5457 8.9543 65.5 20 65.5H32.5H45C56.0457 65.5 65 56.5457 65 45.5V33V20.5C65 9.45431 56.0457 0.5 45 0.5H32.5H20C8.95431 0.5 0 9.4543 0 20.5V33Z" fill="#F5AE3B"/>
<g opacity="0.4">
<path fill-rule="evenodd" clip-rule="evenodd" d="M30.3234 28.7717C29.5685 28.7717 28.8843 29.427 28.8843 30.3196C28.8843 30.9275 29.0151 31.2055 29.131 31.3533C29.255 31.5115 29.4635 31.652 29.874 31.7978L34.7447 33.4898C34.7465 33.4904 34.7483 33.491 34.7501 33.4917C35.2932 33.6842 35.8822 33.9727 36.3173 34.5277C36.7607 35.0934 36.9503 35.813 36.9503 36.6805C36.9503 38.4967 35.5304 40.0424 33.6973 40.0424H30.662C28.6325 40.0424 27.0703 38.3366 27.0703 36.3177C27.0703 35.8168 27.4764 35.4107 27.9773 35.4107C28.4782 35.4107 28.8843 35.8168 28.8843 36.3177C28.8843 37.4189 29.7165 38.2284 30.662 38.2284H33.6973C34.4521 38.2284 35.1364 37.5731 35.1364 36.6805C35.1364 36.0726 35.0055 35.7946 34.8897 35.6468C34.7657 35.4886 34.5572 35.3481 34.1467 35.2023L29.2759 33.5103C29.2741 33.5097 29.2724 33.509 29.2706 33.5084C28.7274 33.3159 28.1384 33.0274 27.7034 32.4724C27.2599 31.9067 27.0703 31.1871 27.0703 30.3196C27.0703 28.5034 28.4902 26.9578 30.3234 26.9578H33.3587C35.3881 26.9578 36.9503 28.6636 36.9503 30.6824C36.9503 31.1833 36.5443 31.5894 36.0434 31.5894C35.5425 31.5894 35.1364 31.1833 35.1364 30.6824C35.1364 29.5812 34.3042 28.7717 33.3587 28.7717H30.3234Z" fill="#F5AE3B"/>
<path fill-rule="evenodd" clip-rule="evenodd" d="M32.0027 25.3374C32.5036 25.3374 32.9097 25.7435 32.9097 26.2444V40.756C32.9097 41.2569 32.5036 41.663 32.0027 41.663C31.5018 41.663 31.0957 41.2569 31.0957 40.756V26.2444C31.0957 25.7435 31.5018 25.3374 32.0027 25.3374Z" fill="#F5AE3B"/>
</g>
<path fill-rule="evenodd" clip-rule="evenodd" d="M19 33.5C19 26.3203 24.8203 20.5 32 20.5C39.1796 20.5 45 26.3203 45 33.5C45 40.6796 39.1796 46.5 32 46.5C24.8203 46.5 19 40.6796 19 33.5ZM32 22.314C25.8221 22.314 20.814 27.3221 20.814 33.5C20.814 39.6778 25.8221 44.686 32 44.686C38.1778 44.686 43.186 39.6778 43.186 33.5C43.186 27.3221 38.1778 22.314 32 22.314Z" fill="#F5AE3B"/>
</svg>
