<svg width="41" height="40" viewBox="0 0 41 40" fill="none" xmlns="http://www.w3.org/2000/svg">
<rect x="1.375" y="0.5" width="39" height="39" rx="19.5" fill="#F7F7F7"/>
<rect x="1.375" y="0.5" width="39" height="39" rx="19.5" stroke="#EAEAEA"/>
<g clip-path="url(#clip0_469_8446)">
<path d="M28.389 18.2794C27.355 16.5954 25.003 13.77 20.875 13.77C16.747 13.77 14.395 16.5954 13.361 18.2794C13.0414 18.7964 12.8721 19.3922 12.8721 20C12.8721 20.6079 13.0414 21.2037 13.361 21.7207C14.395 23.4047 16.747 26.23 20.875 26.23C25.003 26.23 27.355 23.4047 28.389 21.7207C28.7087 21.2037 28.878 20.6079 28.878 20C28.878 19.3922 28.7087 18.7964 28.389 18.2794ZM27.2524 21.0227C26.3644 22.4667 24.3544 24.8967 20.875 24.8967C17.3957 24.8967 15.3857 22.4667 14.4977 21.0227C14.3078 20.7154 14.2072 20.3613 14.2072 20C14.2072 19.6388 14.3078 19.2847 14.4977 18.9774C15.3857 17.5334 17.3957 15.1034 20.875 15.1034C24.3544 15.1034 26.3644 17.5307 27.2524 18.9774C27.4423 19.2847 27.5429 19.6388 27.5429 20C27.5429 20.3613 27.4423 20.7154 27.2524 21.0227Z" fill="#9E9E9E" style="mix-blend-mode:luminosity"/>
<path d="M20.8753 16.6665C20.2161 16.6665 19.5716 16.862 19.0234 17.2283C18.4753 17.5945 18.048 18.1151 17.7957 18.7242C17.5434 19.3333 17.4774 20.0035 17.606 20.6501C17.7347 21.2967 18.0521 21.8907 18.5183 22.3569C18.9845 22.823 19.5784 23.1405 20.225 23.2691C20.8716 23.3977 21.5419 23.3317 22.1509 23.0794C22.76 22.8271 23.2806 22.3999 23.6469 21.8517C24.0132 21.3036 24.2087 20.6591 24.2087 19.9998C24.2076 19.1161 23.8561 18.2689 23.2312 17.644C22.6063 17.0191 21.7591 16.6676 20.8753 16.6665ZM20.8753 21.9998C20.4798 21.9998 20.0931 21.8825 19.7642 21.6628C19.4353 21.443 19.1789 21.1307 19.0276 20.7652C18.8762 20.3998 18.8366 19.9976 18.9138 19.6097C18.9909 19.2217 19.1814 18.8653 19.4611 18.5856C19.7408 18.3059 20.0972 18.1154 20.4851 18.0383C20.8731 17.9611 21.2752 18.0007 21.6407 18.1521C22.0061 18.3035 22.3185 18.5598 22.5383 18.8887C22.758 19.2176 22.8753 19.6043 22.8753 19.9998C22.8753 20.5303 22.6646 21.039 22.2895 21.4141C21.9145 21.7891 21.4058 21.9998 20.8753 21.9998Z" fill="#9E9E9E" style="mix-blend-mode:luminosity"/>
</g>
<defs>
<clipPath id="clip0_469_8446">
<rect width="16" height="16" fill="white" transform="translate(12.875 12)"/>
</clipPath>
</defs>
</svg>
