<svg width="281" height="277" viewBox="0 0 281 277" fill="none" xmlns="http://www.w3.org/2000/svg">
<path d="M271.353 158.21L271.36 158.202C281.23 146.868 281.229 130.128 271.36 118.798L271.353 118.79L271.346 118.782L271.31 118.739C271.307 118.736 271.305 118.734 271.303 118.731C264.677 111.119 261.914 100.941 263.805 91.0722L263.807 91.065L263.808 91.0578L263.812 91.0394C263.812 91.0368 263.813 91.0342 263.813 91.0316C266.622 76.3477 258.125 61.8214 243.794 56.8836M271.353 158.21L188.335 15.4786M271.353 158.21L271.346 158.218L271.31 158.261C271.307 158.264 271.305 158.266 271.303 158.269C264.677 165.88 261.914 176.058 263.805 185.928L263.807 185.935L263.808 185.942L263.812 185.96L265.179 185.699L263.815 185.975L263.813 185.968C266.622 200.656 258.128 215.182 243.794 220.116L244.247 221.432L243.794 220.116C234.173 223.429 226.6 230.896 223.238 240.403M271.353 158.21L17.1897 91.0395M243.794 56.8836L244.247 55.5677M243.794 56.8836L244.247 55.5677M243.794 56.8836C234.173 53.5709 226.6 46.1033 223.238 36.5965L224.55 36.1324L223.238 36.5964C218.245 22.4756 203.522 14.0661 188.597 16.8456L188.605 16.8442L188.335 15.4786M244.247 55.5677C259.224 60.7278 268.125 75.9226 265.179 91.3013L265.172 91.3341M244.247 55.5677L265.172 91.3341M188.335 15.4786L188.59 16.8469L188.571 16.8507L188.564 16.8521L188.557 16.8534C178.574 18.716 168.273 15.9966 160.562 9.46198L160.57 9.46875L161.454 8.39363M188.335 15.4786L188.302 15.4852C178.725 17.272 168.845 14.6607 161.454 8.39363M161.454 8.39363L161.394 8.34436C149.377 -1.8446 131.621 -1.8446 119.607 8.34436L161.454 8.39363ZM265.172 91.3341C263.361 100.784 266.008 110.533 272.359 117.825L272.409 117.884M265.172 91.3341L272.409 117.884M272.409 117.884C282.735 129.738 282.735 147.258 272.409 159.116M272.409 117.884V159.116M272.409 159.116L272.359 159.175L272.409 159.116ZM8.64223 117.825C14.9937 110.533 17.6402 100.784 15.8293 91.3341M8.64223 117.825L8.59229 117.884L15.8293 91.3341M8.64223 117.825L9.69179 118.739C9.69414 118.736 9.69648 118.734 9.69883 118.731M8.64223 117.825L9.70559 118.723L9.69883 118.731M15.8293 91.3341L15.8226 91.3013L15.8293 91.3341ZM9.69883 118.731C16.3243 111.119 19.0875 100.941 17.1963 91.0722L17.1949 91.0649L17.1934 91.0576L17.1897 91.0395M9.69883 118.731L9.65565 118.782L9.64886 118.79L9.64195 118.798C-0.227983 130.132 -0.227816 146.872 9.64183 158.202L9.64883 158.21L9.65571 158.218L9.69179 158.261C9.69407 158.264 9.69634 158.266 9.69862 158.269C16.3242 165.88 19.0876 176.058 17.1963 185.928L17.1949 185.935L17.1934 185.942L17.1897 185.96C17.1892 185.963 17.1887 185.965 17.1883 185.968C14.379 200.652 22.8764 215.178 37.2078 220.116C46.8284 223.429 54.4016 230.897 57.7638 240.403L56.4516 240.867L57.7639 240.403C62.7571 254.525 77.481 262.935 92.4068 260.154C92.4083 260.154 92.4098 260.153 92.4113 260.153L92.4318 260.149L92.4445 260.146C102.427 258.284 112.728 261.003 120.439 267.537C120.442 267.54 120.445 267.542 120.447 267.545L120.491 267.581L120.499 267.587L120.507 267.594C132.005 277.343 149 277.342 160.494 267.594L160.502 267.587L160.51 267.581L160.554 267.545C160.557 267.542 160.56 267.54 160.563 267.537C168.273 261.003 178.574 258.284 188.557 260.146L188.57 260.149L188.59 260.153C188.593 260.154 188.596 260.154 188.599 260.155C203.52 262.933 218.242 254.521 223.238 240.403M17.1897 91.0395C17.1892 91.037 17.1887 91.0346 17.1883 91.0322C14.3789 76.3445 22.8735 61.8183 37.2077 56.8837L37.2078 56.8837C46.8284 53.571 54.4016 46.1033 57.7638 36.5965M17.1897 91.0395L160.554 9.45519L160.51 9.41948L160.502 9.4128L160.494 9.40601C148.996 -0.342694 132.002 -0.342532 120.507 9.40589L120.499 9.41274L120.491 9.41948L120.439 9.46222C112.729 15.9967 102.427 18.716 92.4445 16.8534L92.4374 16.8521L92.4303 16.8507L92.4113 16.8469C92.4089 16.8465 92.4065 16.846 92.4041 16.8456C77.4829 14.0662 62.7601 22.4783 57.7638 36.5965M223.238 240.403L224.55 240.867M223.238 240.403L224.55 240.867M224.55 240.867C219.32 255.645 203.921 264.428 188.335 261.521L224.55 240.867ZM57.7638 36.5965L56.4516 36.1324L57.7638 36.5965Z" fill="url(#paint0_radial_414_18947)" stroke="#A9C370" stroke-width="2.78378"/>
<defs>
<radialGradient id="paint0_radial_414_18947" cx="0" cy="0" r="1" gradientUnits="userSpaceOnUse" gradientTransform="translate(140.501 138.5) rotate(90) scale(487.877 494.448)">
<stop offset="0.171666" stop-color="#45D264" stop-opacity="0"/>
<stop offset="1" stop-color="#45D264"/>
</radialGradient>
</defs>
</svg>
